<svg width="70" height="49" viewBox="0 0 70 49" fill="none" xmlns="http://www.w3.org/2000/svg">
<g id="Group">
<path id="Vector" d="M69.9956 11.5039V9.87392C69.9956 9.63949 69.9736 9.42044 69.9671 9.18896C69.9693 9.14353 69.9934 9.10471 69.9934 9.05855V2.53766C69.9934 1.19115 68.8931 0.0915222 67.5473 0.0915222H65.9165C63.6763 0.0915222 61.8425 4.49505 61.8425 9.87381V24.6318C63.4403 24.9556 64.6988 26.2113 65.0235 27.8112H65.1033V46.5619C65.1033 47.9069 66.2029 49.0065 67.5464 49.0065H67.5516C68.8966 49.0065 70 47.9069 70 46.5619L69.9992 27.8105V11.5037L69.9956 11.5039Z" fill="#596B86"/>
<path id="Vector_2" d="M10.5912 0C10.1429 0 9.77654 0.366294 9.77654 0.814655V12.2306C9.77654 12.6819 9.41245 13.0453 8.96189 13.0453C8.51062 13.0453 8.14724 12.6812 8.14724 12.2306V0.814655C8.14724 0.366313 7.78095 0 7.33259 0C6.88422 0 6.51793 0.366294 6.51793 0.814655V12.2306C6.51793 12.6819 6.15164 13.0453 5.70328 13.0453C5.2498 13.0453 4.88863 12.6812 4.88863 12.2306V0.814655C4.88863 0.366313 4.52234 0 4.07397 0C3.62344 0 3.25932 0.366294 3.25932 0.814655V12.2306C3.25713 12.6819 2.89303 13.0453 2.44467 13.0453C1.99119 13.0453 1.63002 12.6812 1.63002 12.2306V0.814655C1.63002 0.366313 1.26372 0 0.81317 0C0.364827 0 0 0.366294 0 0.814655V15.9573C0 17.5199 1.36922 18.8466 3.26082 19.3485V46.4711C3.26082 47.8161 4.36045 48.9157 5.70696 48.9157C7.05054 48.9157 8.15309 47.8161 8.15309 46.4711L8.14943 19.3485C10.0395 18.8467 11.4103 17.5199 11.4103 15.9573V0.814655C11.4059 0.366313 11.0396 0 10.5912 0H10.5912Z" fill="#596B86"/>
<path id="Vector_3" d="M35.0001 9.33592C28.5555 9.33592 23.332 14.5607 23.332 21.0055H46.67C46.6685 14.5609 41.4452 9.33592 35.0004 9.33592H35.0001ZM35.0001 11.4362C39.5561 11.4362 43.3765 14.634 44.3369 18.9035H25.664C26.6237 14.6338 30.4441 11.4362 35.0001 11.4362Z" fill="#596B86"/>
<path id="Vector_4" d="M33.948 0H36.0462V7.00213H33.948V0Z" fill="#596B86"/>
<path id="Vector_5" d="M16.9321 8.42635L22.9958 11.9259L21.946 13.7449L15.8823 10.2454L16.9321 8.42635Z" fill="#596B86"/>
<path id="Vector_6" d="M25.5705 1.87167L29.0701 7.93534L27.251 8.98515L23.7515 2.92148L25.5705 1.87167Z" fill="#596B86"/>
<path id="Vector_7" d="M53.1036 8.42261L54.1549 10.2409L48.0942 13.745L47.043 11.9267L53.1036 8.42261Z" fill="#596B86"/>
<path id="Vector_8" d="M44.4635 1.87167L46.2818 2.92295L42.7778 8.98361L40.9595 7.93234L44.4635 1.87167Z" fill="#596B86"/>
<path id="Vector_9" d="M51.7234 25.6729L45.114 25.6751H18.6741V35.59C18.6741 41.0426 23.1386 45.5056 28.5897 45.5056H40.1589C44.4467 45.5056 48.0841 42.729 49.4592 38.8962H51.7236C55.3734 38.8962 58.3353 35.9358 58.3353 32.283C58.3353 28.6339 55.3726 25.6728 51.7244 25.6728L51.7234 25.6729ZM51.7234 34.4355H50.0714V30.1374H51.7234C52.9102 30.1374 53.8721 31.0993 53.8721 32.2838C53.8721 33.4735 52.9051 34.4355 51.7234 34.4355Z" fill="#596B86"/>
</g>
</svg>
