<svg width="56" height="48" viewBox="0 0 56 48" fill="none" xmlns="http://www.w3.org/2000/svg">
<g id="Group">
<path id="Vector" d="M48.6447 6.68158C48.6447 5.80263 47.9416 5.09906 47.0622 5.09906H45.3628V8.3226H47.0622C47.9416 8.26414 48.6447 7.56057 48.6447 6.68158Z" fill="#596B86"/>
<path id="Vector_2" d="M40.3809 17.4654H45.128V26.0807L48.2342 26.667L48.2346 17.4653H52.9817C54.3296 17.4653 55.3848 16.3517 55.3848 15.0623V2.40303C55.3848 1.05515 54.2711 0 52.9817 0H40.3811C39.0332 0 37.978 1.11365 37.978 2.40303V15.0037C37.9196 16.3516 39.0332 17.4652 40.3811 17.4652L40.3809 17.4654ZM43.4286 3.10647H47.0622C48.9962 3.10647 50.5788 4.68898 50.5788 6.62315C50.5788 8.55721 48.9963 10.1398 47.0622 10.1398L45.3627 10.1394V14.2419H43.4287L43.4286 3.10647Z" fill="#596B86"/>
<path id="Vector_3" d="M52.3955 30.3591L40.9084 28.2492C40.791 28.2492 40.6741 28.1319 40.6152 28.0734C39.5016 26.7256 32.4104 19.2823 27.7801 19.2823H11.5457C7.73645 19.2823 4.27827 22.8573 2.10988 25.8462C0.70319 27.7219 0 30.0076 0 32.3517V39.1503C0 41.3187 1.75834 43.077 3.92673 43.077H4.80568C5.50885 45.8901 8.02921 48 11.0769 48C14.1246 48 16.6446 45.8901 17.3482 43.077H38.5056C39.2088 45.8901 41.7291 48 44.7769 48C47.8246 48 50.3445 45.8901 51.0481 43.077H51.1654C53.0995 43.077 54.799 41.6118 55.0337 39.6778L55.6784 34.7548C55.8533 32.6449 54.447 30.7108 52.3956 30.3592L52.3955 30.3591ZM10.9598 44.8939C9.08409 44.8939 7.5605 43.3702 7.5605 41.4946C7.5605 39.619 9.0842 38.0953 10.9598 38.0953C12.8353 38.0953 14.359 39.619 14.359 41.4946C14.4175 43.3698 12.8938 44.8939 10.9598 44.8939ZM18.6373 29.187H8.43941C7.91203 29.187 7.56046 28.6596 7.85316 28.1907C9.37686 25.4945 13.1866 22.8573 15.0618 22.8573H17.6407C17.9923 22.8573 18.2854 23.0915 18.3438 23.4435L19.3401 28.3665C19.3994 28.7769 19.0474 29.1869 18.6374 29.1869L18.6373 29.187ZM35.0475 29.187H23.7948C23.4432 29.187 23.1501 28.9527 23.0916 28.6007L22.0953 23.6778C22.0369 23.2673 22.3296 22.8573 22.7985 22.8573H27.7799C29.4794 22.8573 32.996 25.5534 35.5164 27.956C35.9849 28.425 35.6922 29.187 35.0475 29.187V29.187ZM44.6592 44.8939C42.7835 44.8939 41.2599 43.3702 41.2599 41.4946C41.2599 39.619 42.7836 38.0953 44.6592 38.0953C46.5347 38.0953 48.0584 39.619 48.0584 41.4946C48.0584 43.3698 46.5344 44.8939 44.6592 44.8939Z" fill="#596B86"/>
</g>
</svg>
