<svg width="54" height="53" viewBox="0 0 54 53" fill="none" xmlns="http://www.w3.org/2000/svg">
<g id="Group">
<path id="Vector" d="M53.1647 50.8946H45.5372C46.9799 49.9666 47.9421 48.3464 47.9421 46.4986C47.9421 43.6127 45.5967 41.2674 42.711 41.2674C39.817 41.2674 37.4798 43.6128 37.4798 46.4986C37.4798 48.3464 38.4331 49.9662 39.8762 50.8946H16.9766C18.4193 49.9666 19.3815 48.3464 19.3815 46.4986C19.3815 43.6127 17.0361 41.2674 14.1504 41.2674C11.2564 41.2674 8.91922 43.6128 8.91922 46.4986C8.91922 48.3464 9.87246 49.9662 11.3156 50.8946H1.12275C0.658557 50.8946 0.287598 51.2741 0.287598 51.7297C0.287598 52.1854 0.658955 52.5649 1.12275 52.5649H53.1648C53.629 52.5649 54 52.1854 54 51.7297C54.0004 51.2741 53.629 50.8946 53.1648 50.8946H53.1647ZM42.7024 44.3893C43.867 44.3893 44.8117 45.3344 44.8117 46.4986C44.8117 47.6631 43.8666 48.6078 42.7024 48.6078C41.5378 48.6078 40.5931 47.6627 40.5931 46.4986C40.5846 45.334 41.5382 44.3893 42.7024 44.3893ZM14.1416 44.3893C15.3062 44.3893 16.2509 45.3344 16.2509 46.4986C16.2509 47.6631 15.3058 48.6078 14.1416 48.6078C12.9771 48.6078 12.0324 47.6627 12.0324 46.4986C12.0324 45.334 12.9771 44.3893 14.1416 44.3893Z" fill="#596B86"/>
<path id="Vector_2" d="M2.46415 15.1451L9.57695 15.2294C10.8006 15.2461 11.8043 14.2676 11.8128 13.044C11.8295 11.8203 10.8425 10.8166 9.62737 10.8081H9.59358C9.60212 10.7658 9.60212 10.7405 9.60212 10.6986C9.61883 9.07019 8.31136 7.73707 6.6826 7.71181C5.0962 7.6951 3.78863 8.92689 3.70401 10.4962C3.34975 10.2938 2.95314 10.1839 2.51418 10.1757C1.14765 10.1501 0.0172909 11.2556 0.000186884 12.6307C-0.0165164 14.0062 1.08858 15.1284 2.46406 15.1451L2.46415 15.1451Z" fill="#596B86"/>
<path id="Vector_3" d="M41.7497 2.5649C42.2139 2.5649 42.5849 2.18539 42.5849 1.72975V0.835155C42.5849 0.370959 42.2135 0 41.7497 0C41.2855 0 40.9146 0.379511 40.9146 0.835155V1.7212C40.906 2.18501 41.2855 2.56491 41.7497 2.56491V2.5649Z" fill="#596B86"/>
<path id="Vector_4" d="M38.4503 2.83489C38.6022 3.10486 38.8892 3.25675 39.1759 3.25675C39.3193 3.25675 39.463 3.22295 39.5978 3.1472C40.0029 2.91957 40.1377 2.40489 39.9015 1.99974L39.4544 1.22323C39.2268 0.818087 38.7121 0.683293 38.307 0.919468C37.9018 1.1471 37.767 1.66178 38.0032 2.06693L38.4503 2.83489Z" fill="#596B86"/>
<path id="Vector_5" d="M36.1045 4.58137L36.8724 5.02032C37.0076 5.09607 37.151 5.12987 37.2943 5.12987C37.5814 5.12987 37.868 4.97799 38.0199 4.70801C38.2476 4.30287 38.1128 3.79672 37.7162 3.56055L36.9482 3.11345C36.543 2.87727 36.0369 3.02061 35.8007 3.41721C35.5646 3.83052 35.6997 4.34521 36.1045 4.58138L36.1045 4.58137Z" fill="#596B86"/>
<path id="Vector_6" d="M35.7077 7.71181H36.5938C37.058 7.71181 37.4289 7.3323 37.4289 6.87666C37.4289 6.41246 37.0576 6.0415 36.5938 6.0415H35.7077C35.2435 6.0415 34.8726 6.42101 34.8726 6.87666C34.8726 7.33192 35.2439 7.71181 35.7077 7.71181Z" fill="#596B86"/>
<path id="Vector_7" d="M43.9008 3.13867C44.0359 3.21441 44.1793 3.24821 44.3226 3.24821C44.6097 3.24821 44.8963 3.09633 45.0482 2.82636L45.4953 2.0584C45.723 1.65325 45.5882 1.1471 45.1916 0.910934C44.7864 0.674759 44.2803 0.818096 44.0441 1.2147L43.597 1.98266C43.3604 2.39596 43.4956 2.9025 43.9008 3.13868L43.9008 3.13867Z" fill="#596B86"/>
<path id="Vector_8" d="M42.433 8.18416C42.0616 7.97324 41.6397 7.86369 41.1841 7.86369C39.7414 7.86369 38.5768 9.03641 38.5768 10.471C38.5768 11.9055 39.7495 13.0782 41.1841 13.0782H48.643C49.9256 13.0782 50.9632 12.0403 50.9632 10.7581C50.9632 9.47545 49.9171 8.43787 48.643 8.43787H48.6092C48.6178 8.39553 48.6178 8.36212 48.6178 8.31978C48.6178 6.60709 47.2256 5.22305 45.521 5.22305C43.8589 5.23121 42.5005 6.53867 42.4329 8.18414L42.433 8.18416Z" fill="#596B86"/>
<path id="Vector_9" d="M38.4255 6.86777C38.4255 6.97731 38.4422 7.0787 38.4507 7.18824C39.193 6.57217 40.1381 6.18407 41.176 6.18407H41.2436C41.716 5.23899 42.4925 4.47954 43.4458 4.02389C42.9478 3.72013 42.3741 3.543 41.7498 3.543C39.9186 3.54339 38.4254 5.03692 38.4254 6.86775L38.4255 6.86777Z" fill="#596B86"/>
<path id="Vector_10" d="M3.07174 35.8082C3.07174 35.1416 3.18128 34.4918 3.40075 33.8846L4.86056 29.6828C4.47251 29.4466 4.01686 29.3114 3.536 29.3114C2.10999 29.3114 0.953979 30.4674 0.953979 31.8934V39.2257C0.953979 40.4913 1.87382 41.5459 3.08035 41.7568L3.07996 35.8082L3.07174 35.8082Z" fill="#596B86"/>
<path id="Vector_11" d="M7.7465 26.4686L4.97922 34.4505C4.82734 34.8894 4.75159 35.3532 4.75159 35.8088V41.9851H8.92816C10.1938 40.5171 12.0668 39.5887 14.1509 39.5887C16.2349 39.5887 18.108 40.5253 19.3736 41.9851H37.4889C38.7545 40.5171 40.6275 39.5887 42.7117 39.5887C44.7958 39.5887 46.6688 40.5253 47.9344 41.9851H50.8369V39.4707C50.8369 39.1502 50.8031 38.8465 50.744 38.5427C50.3389 36.5178 48.6177 34.9566 46.4917 34.8051L40.2987 34.3661L35.3713 25.7597C34.629 24.4771 33.262 23.6757 31.7769 23.6757H11.6618C9.88971 23.6842 8.32886 24.7979 7.74663 26.4686L7.7465 26.4686ZM22.5713 27.6246C22.5713 27.0932 23.0017 26.6543 23.5417 26.6543H31.7597C32.1815 26.6543 32.5696 26.8819 32.7805 27.2447L36.3833 33.5391C36.7547 34.189 36.2905 34.9904 35.5396 34.9904H23.5419C23.0105 34.9904 22.5716 34.56 22.5716 34.0201L22.5713 27.6246ZM19.9645 27.6246V34.0285C19.9645 34.5599 19.5341 34.9989 18.9941 34.9989H9.29931C8.63274 34.9989 8.16855 34.3408 8.38801 33.7163L10.5563 27.4471C10.7168 26.9748 11.1639 26.6625 11.6614 26.6625H18.9937C19.534 26.6543 19.9644 27.0847 19.9644 27.6246H19.9645Z" fill="#596B86"/>
<path id="Vector_12" d="M49.6126 46.4992C49.6126 47.0392 49.545 47.5624 49.4269 48.0685H51.469C52.0342 48.0685 52.4984 47.6129 52.4984 47.0391V44.6937C52.4984 44.1285 52.0428 43.6642 51.469 43.6642H48.9969C49.3846 44.5332 49.6126 45.4864 49.6126 46.4991L49.6126 46.4992Z" fill="#596B86"/>
<path id="Vector_13" d="M4.09302 43.6642C3.52783 43.6642 3.0636 44.1198 3.0636 44.6936V47.039C3.0636 47.6042 3.51924 48.0684 4.09302 48.0684H7.41738C7.29929 47.5623 7.2317 47.039 7.2317 46.4992C7.2317 45.4864 7.45117 44.5332 7.84777 43.6643L4.09302 43.6642Z" fill="#596B86"/>
<path id="Vector_14" d="M20.4443 43.6642C20.8324 44.5331 21.0604 45.4867 21.0604 46.4991C21.0604 47.039 20.9928 47.5622 20.8747 48.0683H35.986C35.8679 47.5622 35.8003 47.0389 35.8003 46.4991C35.8003 45.4863 36.0198 44.5331 36.4164 43.6642H20.4443Z" fill="#596B86"/>
</g>
</svg>
