<svg width="55" height="51" viewBox="0 0 55 51" fill="none" xmlns="http://www.w3.org/2000/svg">
<g id="Group">
<path id="Vector" fill-rule="evenodd" clip-rule="evenodd" d="M14.1531 11.062C16.8187 11.062 18.9923 8.57769 18.9923 5.53099C18.9923 2.48429 16.8186 0 14.1531 0C11.4876 0 9.31348 2.48515 9.31348 5.53099C9.31348 8.57725 11.4876 11.062 14.1531 11.062Z" fill="#596B86"/>
<path id="Vector_2" fill-rule="evenodd" clip-rule="evenodd" d="M8.72158 14.423C9.71461 12.3389 12.1883 11.465 14.247 12.4708C15.0436 12.8604 15.6614 13.4739 16.0619 14.2016C16.9565 15.5551 18.4283 17.1946 20.242 18.538C21.6935 19.6121 23.3381 20.4721 25.0271 20.7856C26.1503 20.9939 26.8936 22.085 26.6874 23.2217C26.4816 24.358 25.405 25.1119 24.2813 24.9035C21.9128 24.4632 19.6973 23.3261 17.7945 21.9169C17.0326 21.3536 16.3177 20.7422 15.6602 20.1129C15.5486 20.7223 15.4366 21.4191 15.3289 22.1565C14.9164 24.9691 14.6566 28.0665 14.6566 29.4859C14.6566 31.4238 16.3418 34.2482 17.719 37.7834C18.9621 40.9747 19.8437 44.6514 19.9036 48.4076C19.9247 49.7556 18.8624 50.8653 17.5313 50.886C16.2002 50.9071 15.104 49.8321 15.0833 48.4841C15.033 45.3854 14.2805 42.2888 13.2198 39.5624C12.6497 38.0982 11.9977 36.7582 11.3267 35.5962C10.9692 37.903 10.3362 40.3801 9.38619 42.6654C8.12019 45.7125 6.27653 48.4672 3.74702 50.1731C2.63529 50.918 1.13682 50.61 0.401103 49.4839C-0.334166 48.3577 -0.0303393 46.8415 1.08144 46.0962C2.73709 44.9789 4.01358 43.0085 4.94325 40.7702C6.81645 36.2648 6.36016 34.7597 6.36016 29.4852C6.36016 27.7809 6.65765 24.1617 7.13008 20.9417C7.51293 18.3264 8.05085 15.8294 8.72147 14.4227L8.72158 14.423Z" fill="#596B86"/>
<path id="Vector_3" fill-rule="evenodd" clip-rule="evenodd" d="M28.9398 24.6133H52.4478V20.4649C52.4478 20.0846 52.7592 19.7736 53.1396 19.7736C53.5199 19.7736 53.8313 20.0842 53.8313 20.4649V24.6133C54.2116 24.6133 54.5226 24.9247 54.5226 25.3051C54.5226 25.6854 54.212 25.9964 53.8313 25.9964V32.9108C54.2116 32.9108 54.5226 33.2214 54.5226 33.6021C54.5226 33.9825 54.212 34.2939 53.8313 34.2939V41.2079C54.2116 41.2079 54.5226 41.5193 54.5226 41.8992V41.8997C54.5226 42.2795 54.212 42.591 53.8313 42.591V46.7401C53.8313 47.12 53.5199 47.4314 53.1396 47.4314C52.7592 47.4314 52.4478 47.12 52.4478 46.7401V42.591L28.9398 42.5905V46.7397C28.9398 47.1196 28.6284 47.431 28.2485 47.431C27.8682 47.431 27.5568 47.1196 27.5568 46.7397V42.5905C27.1765 42.5905 26.8655 42.2791 26.8655 41.8992V41.8988C26.8655 41.5189 27.1761 41.2075 27.5568 41.2075V34.2926C27.1765 34.2926 26.8655 33.9812 26.8655 33.6009C26.8655 33.2206 27.1761 32.9095 27.5568 32.9095V25.9955C27.1765 25.9955 26.8655 25.6849 26.8655 25.3042C26.8655 24.9239 27.1761 24.6125 27.5568 24.6125V20.4641C27.5568 20.0838 27.8682 19.7728 28.2485 19.7728C28.6284 19.7728 28.9398 20.0834 28.9398 20.4641V24.6133ZM52.4467 25.9955H28.9398V32.91H52.4478L52.4467 25.9955ZM52.4467 34.2926H28.9398V41.2066H52.4478L52.4467 34.2926Z" fill="#596B86"/>
<path id="Vector_4" fill-rule="evenodd" clip-rule="evenodd" d="M28.2486 50.8863C29.0101 50.8863 29.6308 50.266 29.6308 49.5041C29.6308 48.7427 29.0101 48.1219 28.2486 48.1219C27.4867 48.1219 26.8665 48.7427 26.8665 49.5041C26.8665 50.266 27.4868 50.8863 28.2486 50.8863Z" fill="#596B86"/>
<path id="Vector_5" fill-rule="evenodd" clip-rule="evenodd" d="M53.139 50.8863C53.9009 50.8863 54.5221 50.266 54.5221 49.5041C54.5221 48.7427 53.9013 48.1219 53.139 48.1219C52.3775 48.1219 51.7568 48.7427 51.7568 49.5041C51.7564 50.266 52.3772 50.8863 53.139 50.8863Z" fill="#596B86"/>
<path id="Vector_6" fill-rule="evenodd" clip-rule="evenodd" d="M38.5124 17.0323C42.0573 17.3285 44.8416 20.2991 44.8416 23.9219H31.0144C31.0144 20.3001 33.8 17.329 37.3449 17.0323C37.2765 16.9249 37.2372 16.7977 37.2372 16.6621C37.2372 16.2797 37.5469 15.9704 37.9289 15.9704C38.3105 15.9704 38.6202 16.2801 38.6202 16.6621C38.6202 16.7977 38.5814 16.9249 38.5129 17.0323H38.5124Z" fill="#596B86"/>
<path id="Vector_7" fill-rule="evenodd" clip-rule="evenodd" d="M48.9906 10.785C48.9906 12.6925 50.3727 13.1138 50.3727 14.9334V23.2305C50.3727 23.6104 50.0613 23.9222 49.6814 23.9222H46.224C45.8441 23.9222 45.5322 23.6108 45.5322 23.2305V20.1191H48.9897V16.6617H45.5322V14.9333C45.5322 13.1133 46.9153 12.6924 46.9153 10.7849L46.9157 8.71097H48.9901V10.7849L48.9906 10.785Z" fill="#596B86"/>
<path id="Vector_8" fill-rule="evenodd" clip-rule="evenodd" d="M46.9167 5.4054H48.9911V8.17062H46.9167V5.4054Z" fill="#596B86"/>
</g>
</svg>
