<svg width="178" height="144" viewBox="0 0 178 144" fill="none" xmlns="http://www.w3.org/2000/svg">
<g filter="url(#filter0_d_9_54)">
<path d="M5 9C5 4.02944 9.02944 0 14 0H101C105.971 0 110 4.02944 110 9C110 13.9706 105.971 18 101 18H14C9.02944 18 5 13.9706 5 9Z" fill="#C9D6E9"/>
</g>
<g filter="url(#filter1_d_9_54)">
<path d="M94.5469 14.1172C93.9688 14.1172 93.459 13.998 93.0176 13.7598C92.5762 13.5215 92.2324 13.1582 91.9863 12.6699C91.7402 12.1816 91.6172 11.5664 91.6172 10.8242C91.6172 10.0469 91.7461 9.41211 92.0039 8.91992C92.2656 8.42383 92.625 8.05664 93.082 7.81836C93.5391 7.58008 94.0586 7.46094 94.6406 7.46094C94.9609 7.46094 95.2695 7.49414 95.5664 7.56055C95.8672 7.62305 96.1133 7.70312 96.3047 7.80078L96.0117 8.61523C95.8164 8.53711 95.5898 8.4668 95.332 8.4043C95.0781 8.3418 94.8398 8.31055 94.6172 8.31055C94.1719 8.31055 93.8008 8.40625 93.5039 8.59766C93.2109 8.78906 92.9902 9.07031 92.8418 9.44141C92.6973 9.8125 92.625 10.2695 92.625 10.8125C92.625 11.332 92.6953 11.7754 92.8359 12.1426C92.9805 12.5098 93.1934 12.791 93.4746 12.9863C93.7598 13.1777 94.1152 13.2734 94.541 13.2734C94.8809 13.2734 95.1875 13.2383 95.4609 13.168C95.7344 13.0938 95.9824 13.0078 96.2051 12.9102V13.7773C95.9902 13.8867 95.75 13.9707 95.4844 14.0293C95.2227 14.0879 94.9102 14.1172 94.5469 14.1172Z" fill="#4C6487"/>
<path d="M89.9121 7.57812V14H88.9395V7.57812H89.9121ZM89.4375 5.17578C89.5977 5.17578 89.7344 5.22852 89.8477 5.33398C89.9648 5.43555 90.0234 5.5957 90.0234 5.81445C90.0234 6.0293 89.9648 6.18945 89.8477 6.29492C89.7344 6.40039 89.5977 6.45312 89.4375 6.45312C89.2695 6.45312 89.1289 6.40039 89.0156 6.29492C88.9062 6.18945 88.8516 6.0293 88.8516 5.81445C88.8516 5.5957 88.9062 5.43555 89.0156 5.33398C89.1289 5.22852 89.2695 5.17578 89.4375 5.17578Z" fill="#4C6487"/>
<path d="M86.7363 13.3203C86.8965 13.3203 87.0605 13.3066 87.2285 13.2793C87.3965 13.252 87.5332 13.2188 87.6387 13.1797V13.9355C87.5254 13.9863 87.3672 14.0293 87.1641 14.0645C86.9648 14.0996 86.7695 14.1172 86.5781 14.1172C86.2383 14.1172 85.9297 14.0586 85.6523 13.9414C85.375 13.8203 85.1523 13.6172 84.9844 13.332C84.8203 13.0469 84.7383 12.6523 84.7383 12.1484V8.33984H83.8242V7.86523L84.7441 7.48438L85.1309 6.08984H85.7168V7.57812H87.5977V8.33984H85.7168V12.1191C85.7168 12.5215 85.8086 12.8223 85.9922 13.0215C86.1797 13.2207 86.4277 13.3203 86.7363 13.3203Z" fill="#4C6487"/>
<path d="M80.3965 7.47266C81.1621 7.47266 81.7305 7.64453 82.1016 7.98828C82.4727 8.33203 82.6582 8.88086 82.6582 9.63477V14H81.9492L81.7617 13.0508H81.7148C81.5352 13.2852 81.3477 13.4824 81.1523 13.6426C80.957 13.7988 80.7305 13.918 80.4727 14C80.2188 14.0781 79.9062 14.1172 79.5352 14.1172C79.1445 14.1172 78.7969 14.0488 78.4922 13.9121C78.1914 13.7754 77.9531 13.5684 77.7773 13.291C77.6055 13.0137 77.5195 12.6621 77.5195 12.2363C77.5195 11.5957 77.7734 11.1035 78.2812 10.7598C78.7891 10.416 79.5625 10.2285 80.6016 10.1973L81.709 10.1504V9.75781C81.709 9.20312 81.5898 8.81445 81.3516 8.5918C81.1133 8.36914 80.7773 8.25781 80.3438 8.25781C80.0078 8.25781 79.6875 8.30664 79.3828 8.4043C79.0781 8.50195 78.7891 8.61719 78.5156 8.75L78.2168 8.01172C78.5059 7.86328 78.8379 7.73633 79.2129 7.63086C79.5879 7.52539 79.9824 7.47266 80.3965 7.47266ZM81.6973 10.8359L80.7188 10.877C79.918 10.9082 79.3535 11.0391 79.0254 11.2695C78.6973 11.5 78.5332 11.8262 78.5332 12.248C78.5332 12.6152 78.6445 12.8867 78.8672 13.0625C79.0898 13.2383 79.3848 13.3262 79.752 13.3262C80.3223 13.3262 80.7891 13.168 81.1523 12.8516C81.5156 12.5352 81.6973 12.0605 81.6973 11.4277V10.8359Z" fill="#4C6487"/>
<path d="M75.791 13.3203C75.9512 13.3203 76.1152 13.3066 76.2832 13.2793C76.4512 13.252 76.5879 13.2188 76.6934 13.1797V13.9355C76.5801 13.9863 76.4219 14.0293 76.2188 14.0645C76.0195 14.0996 75.8242 14.1172 75.6328 14.1172C75.293 14.1172 74.9844 14.0586 74.707 13.9414C74.4297 13.8203 74.207 13.6172 74.0391 13.332C73.875 13.0469 73.793 12.6523 73.793 12.1484V8.33984H72.8789V7.86523L73.7988 7.48438L74.1855 6.08984H74.7715V7.57812H76.6523V8.33984H74.7715V12.1191C74.7715 12.5215 74.8633 12.8223 75.0469 13.0215C75.2344 13.2207 75.4824 13.3203 75.791 13.3203Z" fill="#4C6487"/>
<path d="M72.1113 11.7207C72.1113 12.2285 71.9844 12.6621 71.7305 13.0215C71.4805 13.377 71.1289 13.6484 70.6758 13.8359C70.2227 14.0234 69.6895 14.1172 69.0762 14.1172C68.752 14.1172 68.4453 14.1016 68.1562 14.0703C67.8672 14.0391 67.6016 13.9941 67.3594 13.9355C67.1172 13.877 66.9043 13.8047 66.7207 13.7188V12.7637C67.0137 12.8848 67.3711 12.998 67.793 13.1035C68.2148 13.2051 68.6562 13.2559 69.1172 13.2559C69.5469 13.2559 69.9102 13.1992 70.207 13.0859C70.5039 12.9688 70.7285 12.8027 70.8809 12.5879C71.0371 12.3691 71.1152 12.1074 71.1152 11.8027C71.1152 11.5098 71.0508 11.2656 70.9219 11.0703C70.793 10.8711 70.5781 10.6914 70.2773 10.5312C69.9805 10.3672 69.5742 10.1934 69.0586 10.0098C68.6953 9.88086 68.375 9.74023 68.0977 9.58789C67.8203 9.43164 67.5879 9.25586 67.4004 9.06055C67.2129 8.86523 67.0703 8.63867 66.9727 8.38086C66.8789 8.12305 66.832 7.82812 66.832 7.49609C66.832 7.03906 66.9473 6.64844 67.1777 6.32422C67.4121 5.99609 67.7344 5.74609 68.1445 5.57422C68.5586 5.39844 69.0332 5.31055 69.5684 5.31055C70.0254 5.31055 70.4473 5.35352 70.834 5.43945C71.2246 5.52539 71.582 5.64062 71.9062 5.78516L71.5957 6.64062C71.2871 6.51172 70.959 6.4043 70.6113 6.31836C70.2676 6.23242 69.9121 6.18945 69.5449 6.18945C69.1777 6.18945 68.8672 6.24414 68.6133 6.35352C68.3633 6.45898 68.1719 6.60938 68.0391 6.80469C67.9062 7 67.8398 7.23242 67.8398 7.50195C67.8398 7.80273 67.9023 8.05273 68.0273 8.25195C68.1562 8.45117 68.3594 8.62891 68.6367 8.78516C68.918 8.9375 69.2891 9.09766 69.75 9.26562C70.2539 9.44922 70.6816 9.64453 71.0332 9.85156C71.3848 10.0547 71.6523 10.3047 71.8359 10.6016C72.0195 10.8945 72.1113 11.2676 72.1113 11.7207Z" fill="#4C6487"/>
<path d="M61.8105 13.3203C61.9707 13.3203 62.1348 13.3066 62.3027 13.2793C62.4707 13.252 62.6074 13.2188 62.7129 13.1797V13.9355C62.5996 13.9863 62.4414 14.0293 62.2383 14.0645C62.0391 14.0996 61.8438 14.1172 61.6523 14.1172C61.3125 14.1172 61.0039 14.0586 60.7266 13.9414C60.4492 13.8203 60.2266 13.6172 60.0586 13.332C59.8945 13.0469 59.8125 12.6523 59.8125 12.1484V8.33984H58.8984V7.86523L59.8184 7.48438L60.2051 6.08984H60.791V7.57812H62.6719V8.33984H60.791V12.1191C60.791 12.5215 60.8828 12.8223 61.0664 13.0215C61.2539 13.2207 61.502 13.3203 61.8105 13.3203Z" fill="#4C6487"/>
<path d="M55.4707 7.46094C56.0176 7.46094 56.4863 7.58203 56.877 7.82422C57.2676 8.06641 57.5664 8.40625 57.7734 8.84375C57.9805 9.27734 58.084 9.78516 58.084 10.3672V10.9707H53.6484C53.6602 11.7246 53.8477 12.2988 54.2109 12.6934C54.5742 13.0879 55.0859 13.2852 55.7461 13.2852C56.1523 13.2852 56.5117 13.248 56.8242 13.1738C57.1367 13.0996 57.4609 12.9902 57.7969 12.8457V13.7012C57.4727 13.8457 57.1504 13.9512 56.8301 14.0176C56.5137 14.084 56.1387 14.1172 55.7051 14.1172C55.0879 14.1172 54.5488 13.9922 54.0879 13.7422C53.6309 13.4883 53.2754 13.1172 53.0215 12.6289C52.7676 12.1406 52.6406 11.543 52.6406 10.8359C52.6406 10.1445 52.7559 9.54688 52.9863 9.04297C53.2207 8.53516 53.5488 8.14453 53.9707 7.87109C54.3965 7.59766 54.8965 7.46094 55.4707 7.46094ZM55.459 8.25781C54.9395 8.25781 54.5254 8.42773 54.2168 8.76758C53.9082 9.10742 53.7246 9.58203 53.666 10.1914H57.0645C57.0605 9.80859 57 9.47266 56.8828 9.18359C56.7695 8.89062 56.5957 8.66406 56.3613 8.50391C56.127 8.33984 55.8262 8.25781 55.459 8.25781Z" fill="#4C6487"/>
<path d="M47.6602 4.88281V9.61719C47.6602 9.77344 47.6543 9.96484 47.6426 10.1914C47.6309 10.4141 47.6211 10.6113 47.6133 10.7832H47.6543C47.7363 10.6816 47.8555 10.5312 48.0117 10.332C48.1719 10.1328 48.3066 9.97266 48.416 9.85156L50.5488 7.57812H51.6914L49.1074 10.3203L51.8789 14H50.707L48.4395 10.959L47.6602 11.6738V14H46.6934V4.88281H47.6602Z" fill="#4C6487"/>
<path d="M44.7012 7.46094C44.8301 7.46094 44.9648 7.46875 45.1055 7.48438C45.2461 7.49609 45.3711 7.51367 45.4805 7.53711L45.3574 8.43945C45.252 8.41211 45.1348 8.39062 45.0059 8.375C44.877 8.35938 44.7559 8.35156 44.6426 8.35156C44.3848 8.35156 44.1406 8.4043 43.9102 8.50977C43.6836 8.61133 43.4844 8.75977 43.3125 8.95508C43.1406 9.14648 43.0059 9.37891 42.9082 9.65234C42.8105 9.92188 42.7617 10.2227 42.7617 10.5547V14H41.7832V7.57812H42.5918L42.6973 8.76172H42.7383C42.8711 8.52344 43.0312 8.30664 43.2188 8.11133C43.4062 7.91211 43.623 7.75391 43.8691 7.63672C44.1191 7.51953 44.3965 7.46094 44.7012 7.46094Z" fill="#4C6487"/>
<path d="M37.5176 7.47266C38.2832 7.47266 38.8516 7.64453 39.2227 7.98828C39.5938 8.33203 39.7793 8.88086 39.7793 9.63477V14H39.0703L38.8828 13.0508H38.8359C38.6562 13.2852 38.4688 13.4824 38.2734 13.6426C38.0781 13.7988 37.8516 13.918 37.5938 14C37.3398 14.0781 37.0273 14.1172 36.6562 14.1172C36.2656 14.1172 35.918 14.0488 35.6133 13.9121C35.3125 13.7754 35.0742 13.5684 34.8984 13.291C34.7266 13.0137 34.6406 12.6621 34.6406 12.2363C34.6406 11.5957 34.8945 11.1035 35.4023 10.7598C35.9102 10.416 36.6836 10.2285 37.7227 10.1973L38.8301 10.1504V9.75781C38.8301 9.20312 38.7109 8.81445 38.4727 8.5918C38.2344 8.36914 37.8984 8.25781 37.4648 8.25781C37.1289 8.25781 36.8086 8.30664 36.5039 8.4043C36.1992 8.50195 35.9102 8.61719 35.6367 8.75L35.3379 8.01172C35.627 7.86328 35.959 7.73633 36.334 7.63086C36.709 7.52539 37.1035 7.47266 37.5176 7.47266ZM38.8184 10.8359L37.8398 10.877C37.0391 10.9082 36.4746 11.0391 36.1465 11.2695C35.8184 11.5 35.6543 11.8262 35.6543 12.248C35.6543 12.6152 35.7656 12.8867 35.9883 13.0625C36.2109 13.2383 36.5059 13.3262 36.873 13.3262C37.4434 13.3262 37.9102 13.168 38.2734 12.8516C38.6367 12.5352 38.8184 12.0605 38.8184 11.4277V10.8359Z" fill="#4C6487"/>
<path d="M28.2363 14L25.3594 6.41797H25.3125C25.3281 6.57812 25.3418 6.77344 25.3535 7.00391C25.3652 7.23438 25.375 7.48633 25.3828 7.75977C25.3906 8.0293 25.3945 8.30469 25.3945 8.58594V14H24.4688V5.43359H25.9453L28.6582 12.5586H28.6992L31.4531 5.43359H32.918V14H31.9336V8.51562C31.9336 8.26172 31.9375 8.00781 31.9453 7.75391C31.9531 7.49609 31.9629 7.25391 31.9746 7.02734C31.9863 6.79688 31.998 6.59766 32.0098 6.42969H31.9629L29.0508 14H28.2363Z" fill="#4C6487"/>
</g>
<g filter="url(#filter2_d_9_54)">
<path d="M18 9.5C18 10.8807 16.8807 12 15.5 12C14.1193 12 13 10.8807 13 9.5C13 8.11929 14.1193 7 15.5 7C16.8807 7 18 8.11929 18 9.5Z" fill="#4C6487"/>
</g>
<g filter="url(#filter3_d_9_54)">
<path fill-rule="evenodd" clip-rule="evenodd" d="M134.789 79.092C138.774 73.0065 142.234 68.3557 145.403 65.0049C148.601 61.6249 151.441 59.6343 154.156 58.7886C159.465 57.1343 164.822 59.732 172.318 66.7247C172.722 67.1014 173.355 67.0794 173.731 66.6756C174.108 66.2718 174.086 65.639 173.682 65.2622C166.178 58.2614 160.035 54.862 153.561 56.8792C150.383 57.8692 147.26 60.1315 143.95 63.6305C140.636 67.1341 137.073 71.9443 133.027 78.1328L132.937 78.2708L132.895 78.4303C132.162 81.2748 130.779 82.7479 129.614 83.1728C129.05 83.3787 128.513 83.3551 128.027 83.1286C127.555 82.9084 127.058 82.4607 126.637 81.6866C125.908 77.8182 124.964 75.1905 122.944 72.7629C120.966 70.3852 118.001 68.26 113.428 65.257C111.751 62.9685 110.161 61.1566 108.478 60.0879C106.686 58.9502 104.794 58.6604 102.698 59.4267C100.689 60.1607 98.5593 61.8395 96.1189 64.4321C93.663 67.0413 90.8101 70.6678 87.3716 75.4232L87.3177 75.4977L87.2783 75.5808C85.0756 80.227 83.0887 83.3983 81.1769 85.3196C79.2978 87.2081 77.5768 87.8126 75.8054 87.5405C73.9388 87.2538 71.8012 85.967 69.2096 83.542C66.6373 81.1351 63.7361 77.7221 60.332 73.3883L60.2636 73.3013L60.1778 73.2313C55.7792 69.6415 47.9439 68.32 40.29 69.5976C32.596 70.882 24.7849 74.8389 20.5 82.1824L20.4123 82.3327L20.3805 82.5038C19.7138 86.095 18.5958 88.6485 16.4469 90.1906C14.2854 91.7418 10.8465 92.4377 5.12628 91.7102C4.57841 91.6405 4.07778 92.0281 4.0081 92.576C3.93842 93.1239 4.32607 93.6245 4.87394 93.6942C10.7787 94.4452 14.8398 93.8057 17.613 91.8155C20.3555 89.8474 21.6108 86.7215 22.3141 83.0433C26.2303 76.457 33.3671 72.7809 40.6193 71.5703C47.9113 70.3531 55.0247 71.6736 58.8292 74.7129C62.214 79.0184 65.1711 82.5022 67.8431 85.0024C70.5143 87.5019 73.0216 89.1363 75.5017 89.5173C78.0769 89.9129 80.4042 88.9317 82.5946 86.7303C84.7396 84.5747 86.8315 81.1799 89.046 76.5209C92.4453 71.823 95.2214 68.3036 97.5753 65.8029C99.957 63.2725 101.825 61.875 103.384 61.3052C104.855 60.7678 106.099 60.9468 107.406 61.7763C108.784 62.6518 110.222 64.2503 111.919 66.5819L112.026 66.7295L112.179 66.8296C116.878 69.9115 119.628 71.9046 121.407 74.042C123.139 76.1245 123.994 78.4042 124.699 82.2011L124.725 82.344L124.791 82.4734C125.38 83.6267 126.196 84.4813 127.182 84.9412C128.179 85.4061 129.268 85.4278 130.299 85.0517C132.291 84.3253 133.953 82.188 134.789 79.092Z" fill="#445670"/>
</g>
<g filter="url(#filter4_d_9_54)">
<path d="M128 73.5C128 76.5376 125.538 79 122.5 79C119.462 79 117 76.5376 117 73.5C117 70.4624 119.462 68 122.5 68C125.538 68 128 70.4624 128 73.5Z" fill="white"/>
</g>
<g filter="url(#filter5_d_9_54)">
<path fill-rule="evenodd" clip-rule="evenodd" d="M122.5 77.7C124.82 77.7 126.7 75.8196 126.7 73.5C126.7 71.1804 124.82 69.3 122.5 69.3C120.18 69.3 118.3 71.1804 118.3 73.5C118.3 75.8196 120.18 77.7 122.5 77.7ZM122.5 79C125.538 79 128 76.5376 128 73.5C128 70.4624 125.538 68 122.5 68C119.462 68 117 70.4624 117 73.5C117 76.5376 119.462 79 122.5 79Z" fill="#597193"/>
</g>
<g filter="url(#filter6_d_9_54)">
<path d="M129 128.5C129 124.358 132.358 121 136.5 121H147.5C151.642 121 155 124.358 155 128.5C155 132.642 151.642 136 147.5 136H136.5C132.358 136 129 132.642 129 128.5Z" fill="#C9D6E9"/>
</g>
<g filter="url(#filter7_d_9_54)">
<path d="M169.535 131H168.72V123.402H169.535V131Z" fill="#6D7589"/>
<path d="M166.906 125.648V131H166.242L166.125 130.248H166.081C165.97 130.434 165.827 130.59 165.651 130.717C165.475 130.844 165.277 130.938 165.055 131C164.837 131.065 164.604 131.098 164.357 131.098C163.934 131.098 163.579 131.029 163.292 130.893C163.006 130.756 162.79 130.544 162.643 130.258C162.5 129.971 162.428 129.604 162.428 129.154V125.648H163.249V129.096C163.249 129.542 163.349 129.875 163.551 130.097C163.753 130.315 164.061 130.424 164.474 130.424C164.871 130.424 165.187 130.349 165.421 130.199C165.659 130.049 165.83 129.83 165.934 129.54C166.038 129.247 166.09 128.889 166.09 128.466V125.648H166.906Z" fill="#6D7589"/>
<path d="M158.793 132.88C158.63 132.88 158.487 132.868 158.364 132.846C158.24 132.823 158.134 132.792 158.046 132.753V132.045C158.15 132.077 158.263 132.102 158.383 132.118C158.503 132.138 158.634 132.147 158.774 132.147C158.956 132.147 159.124 132.112 159.277 132.04C159.43 131.968 159.552 131.846 159.643 131.674C159.734 131.501 159.78 131.264 159.78 130.961V123.861H160.615V130.897C160.615 131.343 160.54 131.713 160.39 132.006C160.243 132.299 160.033 132.517 159.76 132.66C159.49 132.807 159.168 132.88 158.793 132.88Z" fill="#6D7589"/>
<path d="M147.91 125.551C148.544 125.551 149.025 125.707 149.35 126.02C149.676 126.329 149.838 126.827 149.838 127.514V131H149.038V127.567C149.038 127.121 148.935 126.788 148.73 126.566C148.528 126.345 148.217 126.234 147.797 126.234C147.205 126.234 146.788 126.402 146.547 126.737C146.306 127.073 146.186 127.559 146.186 128.197V131H145.375V125.648H146.03L146.152 126.42H146.196C146.31 126.231 146.455 126.073 146.63 125.946C146.806 125.816 147.003 125.718 147.221 125.653C147.439 125.585 147.669 125.551 147.91 125.551Z" fill="#6D7589"/>
<path d="M143.562 125.648V131H142.898L142.781 130.248H142.737C142.626 130.434 142.483 130.59 142.307 130.717C142.131 130.844 141.933 130.938 141.711 131C141.493 131.065 141.26 131.098 141.013 131.098C140.59 131.098 140.235 131.029 139.948 130.893C139.662 130.756 139.446 130.544 139.299 130.258C139.156 129.971 139.084 129.604 139.084 129.154V125.648H139.905V129.096C139.905 129.542 140.005 129.875 140.207 130.097C140.409 130.315 140.717 130.424 141.13 130.424C141.527 130.424 141.843 130.349 142.077 130.199C142.315 130.049 142.486 129.83 142.59 129.54C142.694 129.247 142.746 128.889 142.746 128.466V125.648H143.562Z" fill="#6D7589"/>
<path d="M135.449 132.88C135.286 132.88 135.143 132.868 135.019 132.846C134.896 132.823 134.79 132.792 134.702 132.753V132.045C134.806 132.077 134.918 132.102 135.039 132.118C135.159 132.138 135.289 132.147 135.429 132.147C135.612 132.147 135.779 132.112 135.932 132.04C136.085 131.968 136.207 131.846 136.299 131.674C136.39 131.501 136.435 131.264 136.435 130.961V123.861H137.27V130.897C137.27 131.343 137.195 131.713 137.046 132.006C136.899 132.299 136.689 132.517 136.416 132.66C136.146 132.807 135.823 132.88 135.449 132.88Z" fill="#6D7589"/>
<path d="M122.31 125.648H123.179L124.361 128.754C124.429 128.936 124.492 129.112 124.551 129.281C124.61 129.447 124.662 129.607 124.707 129.76C124.753 129.913 124.789 130.061 124.815 130.204H124.849C124.894 130.041 124.96 129.828 125.044 129.564C125.129 129.298 125.22 129.026 125.318 128.749L126.436 125.648H127.31L124.981 131.786C124.857 132.115 124.712 132.401 124.546 132.646C124.383 132.89 124.185 133.077 123.95 133.207C123.716 133.34 123.433 133.407 123.101 133.407C122.948 133.407 122.813 133.397 122.696 133.378C122.578 133.362 122.477 133.342 122.393 133.319V132.67C122.464 132.686 122.551 132.701 122.652 132.714C122.756 132.727 122.863 132.733 122.974 132.733C123.176 132.733 123.35 132.694 123.496 132.616C123.646 132.541 123.775 132.431 123.882 132.284C123.99 132.138 124.082 131.964 124.16 131.762L124.453 131.01L122.31 125.648Z" fill="#6D7589"/>
<path d="M119.5 125.561C120.138 125.561 120.611 125.704 120.921 125.99C121.23 126.277 121.385 126.734 121.385 127.362V131H120.794L120.637 130.209H120.598C120.449 130.404 120.292 130.569 120.13 130.702C119.967 130.832 119.778 130.932 119.563 131C119.352 131.065 119.091 131.098 118.782 131.098C118.456 131.098 118.167 131.041 117.913 130.927C117.662 130.813 117.464 130.64 117.317 130.409C117.174 130.178 117.102 129.885 117.102 129.53C117.102 128.996 117.314 128.586 117.737 128.3C118.16 128.013 118.805 127.857 119.671 127.831L120.594 127.792V127.465C120.594 127.003 120.494 126.679 120.296 126.493C120.097 126.308 119.817 126.215 119.456 126.215C119.176 126.215 118.909 126.256 118.655 126.337C118.401 126.418 118.16 126.514 117.932 126.625L117.683 126.01C117.924 125.886 118.201 125.78 118.513 125.692C118.826 125.604 119.155 125.561 119.5 125.561ZM120.584 128.363L119.768 128.397C119.101 128.424 118.631 128.533 118.357 128.725C118.084 128.917 117.947 129.188 117.947 129.54C117.947 129.846 118.04 130.072 118.225 130.219C118.411 130.365 118.657 130.438 118.963 130.438C119.438 130.438 119.827 130.307 120.13 130.043C120.432 129.779 120.584 129.384 120.584 128.856V128.363Z" fill="#6D7589"/>
<path d="M111.666 131L109.268 124.682H109.229C109.242 124.815 109.253 124.978 109.263 125.17C109.273 125.362 109.281 125.572 109.288 125.8C109.294 126.024 109.297 126.254 109.297 126.488V131H108.526V123.861H109.756L112.017 129.799H112.051L114.346 123.861H115.567V131H114.747V126.43C114.747 126.218 114.75 126.007 114.756 125.795C114.763 125.58 114.771 125.378 114.781 125.189C114.791 124.997 114.8 124.831 114.81 124.691H114.771L112.344 131H111.666Z" fill="#6D7589"/>
<path d="M101.248 125.551C101.356 125.551 101.468 125.557 101.585 125.57C101.702 125.58 101.807 125.595 101.898 125.614L101.795 126.366C101.707 126.343 101.61 126.326 101.502 126.312C101.395 126.299 101.294 126.293 101.199 126.293C100.985 126.293 100.781 126.337 100.589 126.425C100.4 126.509 100.234 126.633 100.091 126.796C99.9478 126.955 99.8355 127.149 99.7542 127.377C99.6728 127.602 99.6321 127.852 99.6321 128.129V131H98.8167V125.648H99.4905L99.5784 126.635H99.6125C99.7232 126.436 99.8567 126.256 100.013 126.093C100.169 125.927 100.35 125.795 100.555 125.697C100.763 125.6 100.994 125.551 101.248 125.551Z" fill="#6D7589"/>
<path d="M95.1082 125.551C95.7755 125.551 96.3077 125.78 96.7048 126.239C97.102 126.698 97.3005 127.388 97.3005 128.31C97.3005 128.918 97.2094 129.429 97.0271 129.843C96.8448 130.256 96.5876 130.569 96.2556 130.78C95.9268 130.992 95.5378 131.098 95.0886 131.098C94.8054 131.098 94.5564 131.06 94.3416 130.985C94.1267 130.91 93.9428 130.81 93.7898 130.683C93.6368 130.556 93.5098 130.417 93.4089 130.268H93.3503C93.3601 130.395 93.3715 130.548 93.3845 130.727C93.4008 130.906 93.4089 131.062 93.4089 131.195V133.393H92.5935V125.648H93.2625L93.3699 126.439H93.4089C93.5131 126.277 93.6401 126.129 93.7898 125.995C93.9395 125.858 94.1218 125.751 94.3367 125.673C94.5548 125.591 94.8119 125.551 95.1082 125.551ZM94.9666 126.234C94.5955 126.234 94.296 126.306 94.0681 126.449C93.8435 126.592 93.6791 126.807 93.575 127.094C93.4708 127.377 93.4154 127.733 93.4089 128.163V128.319C93.4089 128.772 93.4578 129.154 93.5554 129.467C93.6563 129.779 93.8207 130.017 94.0486 130.18C94.2797 130.342 94.5889 130.424 94.9763 130.424C95.3083 130.424 95.585 130.334 95.8064 130.155C96.0278 129.976 96.1921 129.727 96.2996 129.408C96.4102 129.086 96.4656 128.716 96.4656 128.3C96.4656 127.668 96.3419 127.167 96.0945 126.796C95.8503 126.422 95.4744 126.234 94.9666 126.234Z" fill="#6D7589"/>
<path d="M90.7651 131L89.8862 128.734H87.0249L86.1509 131H85.311L88.104 123.832H88.8511L91.6245 131H90.7651ZM89.6372 127.997L88.8022 125.746C88.7827 125.688 88.7502 125.591 88.7046 125.458C88.6623 125.325 88.6183 125.186 88.5728 125.043C88.5272 124.9 88.4897 124.784 88.4604 124.696C88.4279 124.83 88.3921 124.963 88.353 125.097C88.3172 125.227 88.2814 125.349 88.2456 125.463C88.2098 125.574 88.1789 125.668 88.1528 125.746L87.3032 127.997H89.6372Z" fill="#6D7589"/>
<path d="M79.01 125.551C79.1174 125.551 79.2297 125.557 79.3469 125.57C79.4641 125.58 79.5683 125.595 79.6594 125.614L79.5569 126.366C79.469 126.343 79.3713 126.326 79.2639 126.312C79.1565 126.299 79.0556 126.293 78.9612 126.293C78.7463 126.293 78.5429 126.337 78.3508 126.425C78.162 126.509 77.996 126.633 77.8528 126.796C77.7096 126.955 77.5972 127.149 77.5159 127.377C77.4345 127.602 77.3938 127.852 77.3938 128.129V131H76.5784V125.648H77.2522L77.3401 126.635H77.3743C77.4849 126.436 77.6184 126.256 77.7747 126.093C77.9309 125.927 78.1116 125.795 78.3167 125.697C78.525 125.6 78.7561 125.551 79.01 125.551Z" fill="#6D7589"/>
<path d="M72.9236 125.561C73.5616 125.561 74.0352 125.704 74.3445 125.99C74.6537 126.277 74.8083 126.734 74.8083 127.362V131H74.2175L74.0613 130.209H74.0222C73.8725 130.404 73.7162 130.569 73.5535 130.702C73.3907 130.832 73.2019 130.932 72.9871 131C72.7755 131.065 72.5151 131.098 72.2058 131.098C71.8803 131.098 71.5906 131.041 71.3367 130.927C71.086 130.813 70.8875 130.64 70.741 130.409C70.5977 130.178 70.5261 129.885 70.5261 129.53C70.5261 128.996 70.7377 128.586 71.1609 128.3C71.5841 128.013 72.2286 127.857 73.0945 127.831L74.0173 127.792V127.465C74.0173 127.003 73.9181 126.679 73.7195 126.493C73.5209 126.308 73.241 126.215 72.8796 126.215C72.5997 126.215 72.3328 126.256 72.0789 126.337C71.825 126.418 71.5841 126.514 71.3562 126.625L71.1072 126.01C71.3481 125.886 71.6248 125.78 71.9373 125.692C72.2498 125.604 72.5785 125.561 72.9236 125.561ZM74.0076 128.363L73.1921 128.397C72.5248 128.424 72.0544 128.533 71.781 128.725C71.5076 128.917 71.3708 129.188 71.3708 129.54C71.3708 129.846 71.4636 130.072 71.6492 130.219C71.8347 130.365 72.0805 130.438 72.3865 130.438C72.8617 130.438 73.2507 130.307 73.5535 130.043C73.8562 129.779 74.0076 129.384 74.0076 128.856V128.363Z" fill="#6D7589"/>
<path d="M65.0894 131L62.6919 124.682H62.6528C62.6659 124.815 62.6772 124.978 62.687 125.17C62.6968 125.362 62.7049 125.572 62.7114 125.8C62.7179 126.024 62.7212 126.254 62.7212 126.488V131H61.9497V123.861H63.1802L65.4409 129.799H65.4751L67.77 123.861H68.9907V131H68.1704V126.43C68.1704 126.218 68.1737 126.007 68.1802 125.795C68.1867 125.58 68.1948 125.378 68.2046 125.189C68.2144 124.997 68.2241 124.831 68.2339 124.691H68.1948L65.7681 131H65.0894Z" fill="#6D7589"/>
<path d="M51.0198 123.402V125.302C51.0198 125.52 51.0133 125.731 51.0002 125.937C50.9905 126.142 50.9823 126.301 50.9758 126.415H51.0198C51.1663 126.174 51.3778 125.971 51.6545 125.805C51.9312 125.639 52.2844 125.556 52.7141 125.556C53.3847 125.556 53.9185 125.788 54.3157 126.254C54.7161 126.716 54.9163 127.405 54.9163 128.319C54.9163 128.922 54.8251 129.429 54.6428 129.843C54.4605 130.256 54.2034 130.569 53.8713 130.78C53.5393 130.992 53.1471 131.098 52.6946 131.098C52.2714 131.098 51.9231 131.02 51.6497 130.863C51.3795 130.704 51.1711 130.51 51.0247 130.282H50.9612L50.7952 131H50.2092V123.402H51.0198ZM52.5823 126.234C52.1949 126.234 51.8873 126.311 51.6594 126.464C51.4316 126.614 51.2672 126.841 51.1663 127.147C51.0686 127.45 51.0198 127.834 51.0198 128.3V128.344C51.0198 129.018 51.1321 129.534 51.3567 129.892C51.5813 130.246 51.9898 130.424 52.5823 130.424C53.0803 130.424 53.453 130.242 53.7004 129.877C53.9511 129.512 54.0764 128.992 54.0764 128.314C54.0764 127.624 53.9527 127.105 53.7053 126.757C53.4612 126.409 53.0868 126.234 52.5823 126.234Z" fill="#6D7589"/>
<path d="M46.5544 125.551C47.0102 125.551 47.4008 125.652 47.7263 125.854C48.0518 126.055 48.3009 126.339 48.4734 126.703C48.6459 127.064 48.7322 127.488 48.7322 127.973V128.476H45.0359C45.0457 129.104 45.2019 129.582 45.5046 129.911C45.8074 130.24 46.2338 130.404 46.7839 130.404C47.1225 130.404 47.422 130.373 47.6824 130.312C47.9428 130.25 48.213 130.159 48.4929 130.038V130.751C48.2227 130.871 47.9542 130.959 47.6873 131.015C47.4236 131.07 47.1111 131.098 46.7498 131.098C46.2354 131.098 45.7862 130.993 45.4021 130.785C45.0212 130.574 44.725 130.264 44.5134 129.857C44.3018 129.451 44.196 128.952 44.196 128.363C44.196 127.787 44.2921 127.289 44.4841 126.869C44.6794 126.446 44.9529 126.12 45.3044 125.893C45.6593 125.665 46.0759 125.551 46.5544 125.551ZM46.5447 126.215C46.1117 126.215 45.7667 126.356 45.5095 126.64C45.2524 126.923 45.0994 127.318 45.0505 127.826H47.8826C47.8793 127.507 47.8289 127.227 47.7312 126.986C47.6368 126.742 47.4919 126.553 47.2966 126.42C47.1013 126.283 46.8507 126.215 46.5447 126.215Z" fill="#6D7589"/>
<path d="M40.1802 131H39.3501V123.861H43.3247V124.594H40.1802V127.211H43.1343V127.938H40.1802V131Z" fill="#6D7589"/>
<path d="M27.4363 125.551C28.071 125.551 28.5512 125.707 28.8767 126.02C29.2022 126.329 29.365 126.827 29.365 127.514V131H28.5642V127.567C28.5642 127.121 28.4617 126.788 28.2566 126.566C28.0548 126.345 27.7439 126.234 27.324 126.234C26.7315 126.234 26.3149 126.402 26.074 126.737C25.8331 127.073 25.7126 127.559 25.7126 128.197V131H24.9021V125.648H25.5564L25.6785 126.42H25.7224C25.8363 126.231 25.9812 126.073 26.157 125.946C26.3328 125.816 26.5297 125.718 26.7478 125.653C26.9659 125.585 27.1954 125.551 27.4363 125.551Z" fill="#6D7589"/>
<path d="M21.2476 125.561C21.8856 125.561 22.3592 125.704 22.6685 125.99C22.9777 126.277 23.1323 126.734 23.1323 127.362V131H22.5415L22.3853 130.209H22.3462C22.1965 130.404 22.0402 130.569 21.8774 130.702C21.7147 130.832 21.5259 130.932 21.311 131C21.0994 131.065 20.839 131.098 20.5298 131.098C20.2043 131.098 19.9146 131.041 19.6606 130.927C19.41 130.813 19.2114 130.64 19.0649 130.409C18.9217 130.178 18.8501 129.885 18.8501 129.53C18.8501 128.996 19.0617 128.586 19.4849 128.3C19.908 128.013 20.5526 127.857 21.4185 127.831L22.3413 127.792V127.465C22.3413 127.003 22.242 126.679 22.0435 126.493C21.8449 126.308 21.5649 126.215 21.2036 126.215C20.9237 126.215 20.6567 126.256 20.4028 126.337C20.1489 126.418 19.908 126.514 19.6802 126.625L19.4312 126.01C19.672 125.886 19.9487 125.78 20.2612 125.692C20.5737 125.604 20.9025 125.561 21.2476 125.561ZM22.3315 128.363L21.5161 128.397C20.8488 128.424 20.3784 128.533 20.105 128.725C19.8315 128.917 19.6948 129.188 19.6948 129.54C19.6948 129.846 19.7876 130.072 19.9731 130.219C20.1587 130.365 20.4045 130.438 20.7104 130.438C21.1857 130.438 21.5747 130.307 21.8774 130.043C22.1802 129.779 22.3315 129.384 22.3315 128.856V128.363Z" fill="#6D7589"/>
<path d="M15.5518 132.88C15.389 132.88 15.2458 132.868 15.1221 132.846C14.9984 132.823 14.8926 132.792 14.8047 132.753V132.045C14.9089 132.077 15.0212 132.102 15.1416 132.118C15.262 132.138 15.3923 132.147 15.5322 132.147C15.7145 132.147 15.8822 132.112 16.0352 132.04C16.1882 131.968 16.3102 131.846 16.4014 131.674C16.4925 131.501 16.5381 131.264 16.5381 130.961V123.861H17.373V130.897C17.373 131.343 17.2982 131.713 17.1484 132.006C17.002 132.299 16.792 132.517 16.5186 132.66C16.2484 132.807 15.9261 132.88 15.5518 132.88Z" fill="#6D7589"/>
</g>
<g filter="url(#filter8_d_9_54)">
<path d="M51.8926 51.9883L50.75 48.25C50.6992 48.0898 50.6504 47.9336 50.6035 47.7812C50.5605 47.625 50.5195 47.4766 50.4805 47.3359C50.4453 47.1914 50.4121 47.0586 50.3809 46.9375C50.3535 46.8125 50.3301 46.7051 50.3105 46.6152H50.2695C50.2539 46.7051 50.2324 46.8125 50.2051 46.9375C50.1777 47.0586 50.1445 47.1914 50.1055 47.3359C50.0703 47.4805 50.0312 47.6328 49.9883 47.793C49.9453 47.9492 49.8965 48.1074 49.8418 48.2676L48.6465 51.9883H47.5508L45.7812 45.5664H46.7891L47.7148 49.1113C47.7773 49.3457 47.8359 49.5781 47.8906 49.8086C47.9492 50.0352 47.998 50.25 48.0371 50.4531C48.0801 50.6523 48.1113 50.8262 48.1309 50.9746H48.1777C48.2012 50.877 48.2266 50.7598 48.2539 50.623C48.2852 50.4863 48.3184 50.3418 48.3535 50.1895C48.3926 50.0332 48.4336 49.8789 48.4766 49.7266C48.5195 49.5703 48.5625 49.4238 48.6055 49.2871L49.7891 45.5664H50.8379L51.9805 49.2812C52.0391 49.4688 52.0957 49.6641 52.1504 49.8672C52.209 50.0703 52.2617 50.2676 52.3086 50.459C52.3555 50.6465 52.3887 50.8145 52.4082 50.9629H52.4551C52.4707 50.8301 52.5 50.666 52.543 50.4707C52.5859 50.2754 52.6348 50.0605 52.6895 49.8262C52.748 49.5918 52.8086 49.3535 52.8711 49.1113L53.8086 45.5664H54.7988L53.0234 51.9883H51.8926Z" fill="#101828"/>
<path d="M42.4004 45.4609C42.9473 45.4609 43.416 45.582 43.8066 45.8242C44.1973 46.0664 44.4961 46.4062 44.7031 46.8438C44.9102 47.2773 45.0137 47.7852 45.0137 48.3672V48.9707H40.5781C40.5898 49.7246 40.7773 50.2988 41.1406 50.6934C41.5039 51.0879 42.0156 51.2852 42.6758 51.2852C43.082 51.2852 43.4414 51.248 43.7539 51.1738C44.0664 51.0996 44.3906 50.9902 44.7266 50.8457V51.7012C44.4023 51.8457 44.0801 51.9512 43.7598 52.0176C43.4434 52.084 43.0684 52.1172 42.6348 52.1172C42.0176 52.1172 41.4785 51.9922 41.0176 51.7422C40.5605 51.4883 40.2051 51.1172 39.9512 50.6289C39.6973 50.1406 39.5703 49.543 39.5703 48.8359C39.5703 48.1445 39.6855 47.5469 39.916 47.043C40.1504 46.5352 40.4785 46.1445 40.9004 45.8711C41.3262 45.5977 41.8262 45.4609 42.4004 45.4609ZM42.3887 46.2578C41.8691 46.2578 41.4551 46.4277 41.1465 46.7676C40.8379 47.1074 40.6543 47.582 40.5957 48.1914H43.9941C43.9902 47.8086 43.9297 47.4727 43.8125 47.1836C43.6992 46.8906 43.5254 46.6641 43.291 46.5039C43.0566 46.3398 42.7559 46.2578 42.3887 46.2578Z" fill="#101828"/>
<path d="M37.8652 45.5781V52H36.8926V45.5781H37.8652ZM37.3906 43.1758C37.5508 43.1758 37.6875 43.2285 37.8008 43.334C37.918 43.4355 37.9766 43.5957 37.9766 43.8145C37.9766 44.0293 37.918 44.1895 37.8008 44.2949C37.6875 44.4004 37.5508 44.4531 37.3906 44.4531C37.2227 44.4531 37.082 44.4004 36.9688 44.2949C36.8594 44.1895 36.8047 44.0293 36.8047 43.8145C36.8047 43.5957 36.8594 43.4355 36.9688 43.334C37.082 43.2285 37.2227 43.1758 37.3906 43.1758Z" fill="#101828"/>
<path d="M32.3047 52L29.8672 45.5781H30.9102L32.3223 49.4629C32.4199 49.7285 32.5195 50.0215 32.6211 50.3418C32.7227 50.6621 32.793 50.9199 32.832 51.1152H32.873C32.9199 50.9199 32.998 50.6621 33.1074 50.3418C33.2168 50.0176 33.3164 49.7246 33.4062 49.4629L34.8184 45.5781H35.8613L33.418 52H32.3047Z" fill="#101828"/>
<path d="M28.9004 45.4609C29.0293 45.4609 29.1641 45.4688 29.3047 45.4844C29.4453 45.4961 29.5703 45.5137 29.6797 45.5371L29.5566 46.4395C29.4512 46.4121 29.334 46.3906 29.2051 46.375C29.0762 46.3594 28.9551 46.3516 28.8418 46.3516C28.584 46.3516 28.3398 46.4043 28.1094 46.5098C27.8828 46.6113 27.6836 46.7598 27.5117 46.9551C27.3398 47.1465 27.2051 47.3789 27.1074 47.6523C27.0098 47.9219 26.9609 48.2227 26.9609 48.5547V52H25.9824V45.5781H26.791L26.8965 46.7617H26.9375C27.0703 46.5234 27.2305 46.3066 27.418 46.1113C27.6055 45.9121 27.8223 45.7539 28.0684 45.6367C28.3184 45.5195 28.5957 45.4609 28.9004 45.4609Z" fill="#101828"/>
<path d="M21.7168 45.4609C22.2637 45.4609 22.7324 45.582 23.123 45.8242C23.5137 46.0664 23.8125 46.4062 24.0195 46.8438C24.2266 47.2773 24.3301 47.7852 24.3301 48.3672V48.9707H19.8945C19.9062 49.7246 20.0938 50.2988 20.457 50.6934C20.8203 51.0879 21.332 51.2852 21.9922 51.2852C22.3984 51.2852 22.7578 51.248 23.0703 51.1738C23.3828 51.0996 23.707 50.9902 24.043 50.8457V51.7012C23.7188 51.8457 23.3965 51.9512 23.0762 52.0176C22.7598 52.084 22.3848 52.1172 21.9512 52.1172C21.334 52.1172 20.7949 51.9922 20.334 51.7422C19.877 51.4883 19.5215 51.1172 19.2676 50.6289C19.0137 50.1406 18.8867 49.543 18.8867 48.8359C18.8867 48.1445 19.002 47.5469 19.2324 47.043C19.4668 46.5352 19.7949 46.1445 20.2168 45.8711C20.6426 45.5977 21.1426 45.4609 21.7168 45.4609ZM21.7051 46.2578C21.1855 46.2578 20.7715 46.4277 20.4629 46.7676C20.1543 47.1074 19.9707 47.582 19.9121 48.1914H23.3105C23.3066 47.8086 23.2461 47.4727 23.1289 47.1836C23.0156 46.8906 22.8418 46.6641 22.6074 46.5039C22.373 46.3398 22.0723 46.2578 21.7051 46.2578Z" fill="#101828"/>
<path d="M14.6562 52L12.2188 45.5781H13.2617L14.6738 49.4629C14.7715 49.7285 14.8711 50.0215 14.9727 50.3418C15.0742 50.6621 15.1445 50.9199 15.1836 51.1152H15.2246C15.2715 50.9199 15.3496 50.6621 15.459 50.3418C15.5684 50.0176 15.668 49.7246 15.7578 49.4629L17.1699 45.5781H18.2129L15.7695 52H14.6562Z" fill="#101828"/>
<path d="M11.5625 48.7773C11.5625 49.3047 11.4941 49.7754 11.3574 50.1895C11.2207 50.6035 11.0234 50.9531 10.7656 51.2383C10.5078 51.5234 10.1953 51.7422 9.82812 51.8945C9.46484 52.043 9.05273 52.1172 8.5918 52.1172C8.16211 52.1172 7.76758 52.043 7.4082 51.8945C7.05273 51.7422 6.74414 51.5234 6.48242 51.2383C6.22461 50.9531 6.02344 50.6035 5.87891 50.1895C5.73828 49.7754 5.66797 49.3047 5.66797 48.7773C5.66797 48.0742 5.78711 47.4766 6.02539 46.9844C6.26367 46.4883 6.60352 46.1113 7.04492 45.8535C7.49023 45.5918 8.01953 45.4609 8.63281 45.4609C9.21875 45.4609 9.73047 45.5918 10.168 45.8535C10.6094 46.1152 10.9512 46.4941 11.1934 46.9902C11.4395 47.4824 11.5625 48.0781 11.5625 48.7773ZM6.67578 48.7773C6.67578 49.293 6.74414 49.7402 6.88086 50.1191C7.01758 50.498 7.22852 50.791 7.51367 50.998C7.79883 51.2051 8.16602 51.3086 8.61523 51.3086C9.06055 51.3086 9.42578 51.2051 9.71094 50.998C10 50.791 10.2129 50.498 10.3496 50.1191C10.4863 49.7402 10.5547 49.293 10.5547 48.7773C10.5547 48.2656 10.4863 47.8242 10.3496 47.4531C10.2129 47.0781 10.002 46.7891 9.7168 46.5859C9.43164 46.3828 9.0625 46.2812 8.60938 46.2812C7.94141 46.2812 7.45117 46.502 7.13867 46.9434C6.83008 47.3848 6.67578 47.9961 6.67578 48.7773Z" fill="#101828"/>
<path d="M41.2637 31.4609C41.8105 31.4609 42.2793 31.582 42.6699 31.8242C43.0605 32.0664 43.3594 32.4062 43.5664 32.8438C43.7734 33.2773 43.877 33.7852 43.877 34.3672V34.9707H39.4414C39.4531 35.7246 39.6406 36.2988 40.0039 36.6934C40.3672 37.0879 40.8789 37.2852 41.5391 37.2852C41.9453 37.2852 42.3047 37.248 42.6172 37.1738C42.9297 37.0996 43.2539 36.9902 43.5898 36.8457V37.7012C43.2656 37.8457 42.9434 37.9512 42.623 38.0176C42.3066 38.084 41.9316 38.1172 41.498 38.1172C40.8809 38.1172 40.3418 37.9922 39.8809 37.7422C39.4238 37.4883 39.0684 37.1172 38.8145 36.6289C38.5605 36.1406 38.4336 35.543 38.4336 34.8359C38.4336 34.1445 38.5488 33.5469 38.7793 33.043C39.0137 32.5352 39.3418 32.1445 39.7637 31.8711C40.1895 31.5977 40.6895 31.4609 41.2637 31.4609ZM41.252 32.2578C40.7324 32.2578 40.3184 32.4277 40.0098 32.7676C39.7012 33.1074 39.5176 33.582 39.459 34.1914H42.8574C42.8535 33.8086 42.793 33.4727 42.6758 33.1836C42.5625 32.8906 42.3887 32.6641 42.1543 32.5039C41.9199 32.3398 41.6191 32.2578 41.252 32.2578Z" fill="#101828"/>
<path d="M37.2266 36.2422C37.2266 36.6523 37.123 36.998 36.916 37.2793C36.7129 37.5566 36.4199 37.7656 36.0371 37.9062C35.6582 38.0469 35.2051 38.1172 34.6777 38.1172C34.2285 38.1172 33.8398 38.082 33.5117 38.0117C33.1836 37.9414 32.8965 37.8418 32.6504 37.7129V36.8164C32.9121 36.9453 33.2246 37.0625 33.5879 37.168C33.9512 37.2734 34.3223 37.3262 34.7012 37.3262C35.2559 37.3262 35.6582 37.2363 35.9082 37.0566C36.1582 36.877 36.2832 36.6328 36.2832 36.3242C36.2832 36.1484 36.2324 35.9941 36.1309 35.8613C36.0332 35.7246 35.8672 35.5938 35.6328 35.4688C35.3984 35.3398 35.0742 35.1992 34.6602 35.0469C34.25 34.8906 33.8945 34.7363 33.5938 34.584C33.2969 34.4277 33.0664 34.2383 32.9023 34.0156C32.7422 33.793 32.6621 33.5039 32.6621 33.1484C32.6621 32.6055 32.8809 32.1895 33.3184 31.9004C33.7598 31.6074 34.3379 31.4609 35.0527 31.4609C35.4395 31.4609 35.8008 31.5 36.1367 31.5781C36.4766 31.6523 36.793 31.7539 37.0859 31.8828L36.7578 32.6621C36.4922 32.5488 36.209 32.4531 35.9082 32.375C35.6074 32.2969 35.3008 32.2578 34.9883 32.2578C34.5391 32.2578 34.1934 32.332 33.9512 32.4805C33.7129 32.6289 33.5938 32.832 33.5938 33.0898C33.5938 33.2891 33.6484 33.4531 33.7578 33.582C33.8711 33.7109 34.0508 33.832 34.2969 33.9453C34.543 34.0586 34.8672 34.1914 35.2695 34.3438C35.6719 34.4922 36.0195 34.6465 36.3125 34.8066C36.6055 34.9629 36.8301 35.1543 36.9863 35.3809C37.1465 35.6035 37.2266 35.8906 37.2266 36.2422Z" fill="#101828"/>
<path d="M31.0801 31.4609C31.209 31.4609 31.3438 31.4688 31.4844 31.4844C31.625 31.4961 31.75 31.5137 31.8594 31.5371L31.7363 32.4395C31.6309 32.4121 31.5137 32.3906 31.3848 32.375C31.2559 32.3594 31.1348 32.3516 31.0215 32.3516C30.7637 32.3516 30.5195 32.4043 30.2891 32.5098C30.0625 32.6113 29.8633 32.7598 29.6914 32.9551C29.5195 33.1465 29.3848 33.3789 29.2871 33.6523C29.1895 33.9219 29.1406 34.2227 29.1406 34.5547V38H28.1621V31.5781H28.9707L29.0762 32.7617H29.1172C29.25 32.5234 29.4102 32.3066 29.5977 32.1113C29.7852 31.9121 30.002 31.7539 30.248 31.6367C30.498 31.5195 30.7754 31.4609 31.0801 31.4609Z" fill="#101828"/>
<path d="M26.1055 31.5781V38H25.3086L25.168 37.0977H25.1152C24.9824 37.3203 24.8105 37.5078 24.5996 37.6602C24.3887 37.8125 24.1504 37.9258 23.8848 38C23.623 38.0781 23.3438 38.1172 23.0469 38.1172C22.5391 38.1172 22.1133 38.0352 21.7695 37.8711C21.4258 37.707 21.166 37.4531 20.9902 37.1094C20.8184 36.7656 20.7324 36.3242 20.7324 35.7852V31.5781H21.7168V35.7148C21.7168 36.25 21.8379 36.6504 22.0801 36.916C22.3223 37.1777 22.6914 37.3086 23.1875 37.3086C23.6641 37.3086 24.043 37.2188 24.3242 37.0391C24.6094 36.8594 24.8145 36.5957 24.9395 36.248C25.0645 35.8965 25.127 35.4668 25.127 34.959V31.5781H26.1055Z" fill="#101828"/>
<path d="M19.1211 34.7773C19.1211 35.3047 19.0527 35.7754 18.916 36.1895C18.7793 36.6035 18.582 36.9531 18.3242 37.2383C18.0664 37.5234 17.7539 37.7422 17.3867 37.8945C17.0234 38.043 16.6113 38.1172 16.1504 38.1172C15.7207 38.1172 15.3262 38.043 14.9668 37.8945C14.6113 37.7422 14.3027 37.5234 14.041 37.2383C13.7832 36.9531 13.582 36.6035 13.4375 36.1895C13.2969 35.7754 13.2266 35.3047 13.2266 34.7773C13.2266 34.0742 13.3457 33.4766 13.584 32.9844C13.8223 32.4883 14.1621 32.1113 14.6035 31.8535C15.0488 31.5918 15.5781 31.4609 16.1914 31.4609C16.7773 31.4609 17.2891 31.5918 17.7266 31.8535C18.168 32.1152 18.5098 32.4941 18.752 32.9902C18.998 33.4824 19.1211 34.0781 19.1211 34.7773ZM14.2344 34.7773C14.2344 35.293 14.3027 35.7402 14.4395 36.1191C14.5762 36.498 14.7871 36.791 15.0723 36.998C15.3574 37.2051 15.7246 37.3086 16.1738 37.3086C16.6191 37.3086 16.9844 37.2051 17.2695 36.998C17.5586 36.791 17.7715 36.498 17.9082 36.1191C18.0449 35.7402 18.1133 35.293 18.1133 34.7773C18.1133 34.2656 18.0449 33.8242 17.9082 33.4531C17.7715 33.0781 17.5605 32.7891 17.2754 32.5859C16.9902 32.3828 16.6211 32.2812 16.168 32.2812C15.5 32.2812 15.0098 32.502 14.6973 32.9434C14.3887 33.3848 14.2344 33.9961 14.2344 34.7773Z" fill="#101828"/>
<path d="M9.83398 30.1895C9.36133 30.1895 8.93555 30.2715 8.55664 30.4355C8.18164 30.5957 7.86133 30.8301 7.5957 31.1387C7.33398 31.4434 7.13281 31.8125 6.99219 32.2461C6.85156 32.6797 6.78125 33.168 6.78125 33.7109C6.78125 34.4297 6.89258 35.0547 7.11523 35.5859C7.3418 36.1133 7.67773 36.5215 8.12305 36.8105C8.57227 37.0996 9.13281 37.2441 9.80469 37.2441C10.1875 37.2441 10.5469 37.2129 10.8828 37.1504C11.2227 37.084 11.5527 37.002 11.873 36.9043V37.7715C11.5605 37.8887 11.2324 37.9746 10.8887 38.0293C10.5449 38.0879 10.1367 38.1172 9.66406 38.1172C8.79297 38.1172 8.06445 37.9375 7.47852 37.5781C6.89648 37.2148 6.45898 36.7031 6.16602 36.043C5.87695 35.3828 5.73242 34.6035 5.73242 33.7051C5.73242 33.0566 5.82227 32.4648 6.00195 31.9297C6.18555 31.3906 6.45117 30.9258 6.79883 30.5352C7.15039 30.1445 7.58008 29.8438 8.08789 29.6328C8.59961 29.418 9.18555 29.3105 9.8457 29.3105C10.2793 29.3105 10.6973 29.3535 11.0996 29.4395C11.502 29.5254 11.8652 29.6484 12.1895 29.8086L11.791 30.6523C11.5176 30.5273 11.2168 30.4199 10.8887 30.3301C10.5645 30.2363 10.2129 30.1895 9.83398 30.1895Z" fill="#101828"/>
</g>
<g filter="url(#filter9_d_9_54)">
<path d="M124.939 39.3105C125.525 39.3105 125.969 39.5449 126.27 40.0137C126.574 40.4785 126.727 41.1367 126.727 41.9883C126.727 42.8398 126.58 43.5039 126.287 43.9805C125.994 44.4531 125.545 44.6895 124.939 44.6895C124.377 44.6895 123.945 44.4531 123.645 43.9805C123.348 43.5039 123.199 42.8398 123.199 41.9883C123.199 41.1367 123.342 40.4785 123.627 40.0137C123.912 39.5449 124.35 39.3105 124.939 39.3105ZM124.939 40.0078C124.623 40.0078 124.391 40.1738 124.242 40.5059C124.094 40.834 124.02 41.3281 124.02 41.9883C124.02 42.6484 124.094 43.1465 124.242 43.4824C124.391 43.8184 124.623 43.9863 124.939 43.9863C125.268 43.9863 125.512 43.8184 125.672 43.4824C125.832 43.1465 125.912 42.6484 125.912 41.9883C125.912 41.332 125.832 40.8379 125.672 40.5059C125.516 40.1738 125.271 40.0078 124.939 40.0078ZM130.365 39.4336L125.613 48H124.758L129.51 39.4336H130.365ZM130.137 42.7441C130.719 42.7441 131.162 42.9785 131.467 43.4473C131.771 43.9121 131.924 44.5703 131.924 45.4219C131.924 46.2695 131.777 46.9316 131.484 47.4082C131.191 47.8809 130.742 48.1172 130.137 48.1172C129.57 48.1172 129.139 47.8809 128.842 47.4082C128.545 46.9316 128.396 46.2695 128.396 45.4219C128.396 44.5703 128.537 43.9121 128.818 43.4473C129.104 42.9785 129.543 42.7441 130.137 42.7441ZM130.137 43.4473C129.82 43.4473 129.588 43.6113 129.439 43.9395C129.291 44.2676 129.217 44.7617 129.217 45.4219C129.217 46.082 129.291 46.5801 129.439 46.916C129.588 47.248 129.82 47.4141 130.137 47.4141C130.465 47.4141 130.709 47.25 130.869 46.9219C131.029 46.5898 131.109 46.0898 131.109 45.4219C131.109 44.7656 131.029 44.2734 130.869 43.9453C130.713 43.6133 130.469 43.4473 130.137 43.4473Z" fill="#101828"/>
<path d="M119.033 42.7617C119.615 42.7617 120.121 42.8613 120.551 43.0605C120.98 43.2559 121.312 43.541 121.547 43.916C121.785 44.291 121.904 44.7461 121.904 45.2812C121.904 45.8672 121.777 46.373 121.523 46.7988C121.27 47.2207 120.904 47.5469 120.428 47.7773C119.951 48.0039 119.381 48.1172 118.717 48.1172C118.271 48.1172 117.857 48.0781 117.475 48C117.092 47.9219 116.77 47.8047 116.508 47.6484V46.7227C116.793 46.8945 117.139 47.0312 117.545 47.1328C117.951 47.2344 118.346 47.2852 118.729 47.2852C119.162 47.2852 119.541 47.2168 119.865 47.0801C120.193 46.9395 120.447 46.7285 120.627 46.4473C120.811 46.1621 120.902 45.8047 120.902 45.375C120.902 44.8047 120.727 44.3652 120.375 44.0566C120.027 43.7441 119.477 43.5879 118.723 43.5879C118.48 43.5879 118.215 43.6074 117.926 43.6465C117.637 43.6855 117.398 43.7285 117.211 43.7754L116.719 43.4531L117.047 39.4336H121.307V40.3242H117.879L117.662 42.9082C117.811 42.877 118.002 42.8457 118.236 42.8145C118.471 42.7793 118.736 42.7617 119.033 42.7617Z" fill="#101828"/>
<path d="M113.08 48H112.131V41.9297C112.131 41.6992 112.131 41.502 112.131 41.3379C112.135 41.1699 112.139 41.0176 112.143 40.8809C112.15 40.7402 112.16 40.5977 112.172 40.4531C112.051 40.5781 111.938 40.6855 111.832 40.7754C111.727 40.8613 111.596 40.9688 111.439 41.0977L110.461 41.8828L109.951 41.2207L112.271 39.4336H113.08V48Z" fill="#101828"/>
<path d="M105.82 43.3711H108.234V44.168H105.82V46.6523H105.018V44.168H102.604V43.3711H105.018V40.875H105.82V43.3711Z" fill="#101828"/>
</g>
<defs>
<filter id="filter0_d_9_54" x="1" y="0" width="113" height="26" filterUnits="userSpaceOnUse" color-interpolation-filters="sRGB">
<feFlood flood-opacity="0" result="BackgroundImageFix"/>
<feColorMatrix in="SourceAlpha" type="matrix" values="0 0 0 0 0 0 0 0 0 0 0 0 0 0 0 0 0 0 127 0" result="hardAlpha"/>
<feOffset dy="4"/>
<feGaussianBlur stdDeviation="2"/>
<feComposite in2="hardAlpha" operator="out"/>
<feColorMatrix type="matrix" values="0 0 0 0 0 0 0 0 0 0 0 0 0 0 0 0 0 0 0.25 0"/>
<feBlend mode="normal" in2="BackgroundImageFix" result="effect1_dropShadow_9_54"/>
<feBlend mode="normal" in="SourceGraphic" in2="effect1_dropShadow_9_54" result="shape"/>
</filter>
<filter id="filter1_d_9_54" x="20.4688" y="4.88281" width="79.8359" height="17.2344" filterUnits="userSpaceOnUse" color-interpolation-filters="sRGB">
<feFlood flood-opacity="0" result="BackgroundImageFix"/>
<feColorMatrix in="SourceAlpha" type="matrix" values="0 0 0 0 0 0 0 0 0 0 0 0 0 0 0 0 0 0 127 0" result="hardAlpha"/>
<feOffset dy="4"/>
<feGaussianBlur stdDeviation="2"/>
<feComposite in2="hardAlpha" operator="out"/>
<feColorMatrix type="matrix" values="0 0 0 0 0 0 0 0 0 0 0 0 0 0 0 0 0 0 0.25 0"/>
<feBlend mode="normal" in2="BackgroundImageFix" result="effect1_dropShadow_9_54"/>
<feBlend mode="normal" in="SourceGraphic" in2="effect1_dropShadow_9_54" result="shape"/>
</filter>
<filter id="filter2_d_9_54" x="9" y="7" width="13" height="13" filterUnits="userSpaceOnUse" color-interpolation-filters="sRGB">
<feFlood flood-opacity="0" result="BackgroundImageFix"/>
<feColorMatrix in="SourceAlpha" type="matrix" values="0 0 0 0 0 0 0 0 0 0 0 0 0 0 0 0 0 0 127 0" result="hardAlpha"/>
<feOffset dy="4"/>
<feGaussianBlur stdDeviation="2"/>
<feComposite in2="hardAlpha" operator="out"/>
<feColorMatrix type="matrix" values="0 0 0 0 0 0 0 0 0 0 0 0 0 0 0 0 0 0 0.25 0"/>
<feBlend mode="normal" in2="BackgroundImageFix" result="effect1_dropShadow_9_54"/>
<feBlend mode="normal" in="SourceGraphic" in2="effect1_dropShadow_9_54" result="shape"/>
</filter>
<filter id="filter3_d_9_54" x="0" y="56.3035" width="178" height="45.6958" filterUnits="userSpaceOnUse" color-interpolation-filters="sRGB">
<feFlood flood-opacity="0" result="BackgroundImageFix"/>
<feColorMatrix in="SourceAlpha" type="matrix" values="0 0 0 0 0 0 0 0 0 0 0 0 0 0 0 0 0 0 127 0" result="hardAlpha"/>
<feOffset dy="4"/>
<feGaussianBlur stdDeviation="2"/>
<feComposite in2="hardAlpha" operator="out"/>
<feColorMatrix type="matrix" values="0 0 0 0 0 0 0 0 0 0 0 0 0 0 0 0 0 0 0.25 0"/>
<feBlend mode="normal" in2="BackgroundImageFix" result="effect1_dropShadow_9_54"/>
<feBlend mode="normal" in="SourceGraphic" in2="effect1_dropShadow_9_54" result="shape"/>
</filter>
<filter id="filter4_d_9_54" x="113" y="68" width="19" height="19" filterUnits="userSpaceOnUse" color-interpolation-filters="sRGB">
<feFlood flood-opacity="0" result="BackgroundImageFix"/>
<feColorMatrix in="SourceAlpha" type="matrix" values="0 0 0 0 0 0 0 0 0 0 0 0 0 0 0 0 0 0 127 0" result="hardAlpha"/>
<feOffset dy="4"/>
<feGaussianBlur stdDeviation="2"/>
<feComposite in2="hardAlpha" operator="out"/>
<feColorMatrix type="matrix" values="0 0 0 0 0 0 0 0 0 0 0 0 0 0 0 0 0 0 0.25 0"/>
<feBlend mode="normal" in2="BackgroundImageFix" result="effect1_dropShadow_9_54"/>
<feBlend mode="normal" in="SourceGraphic" in2="effect1_dropShadow_9_54" result="shape"/>
</filter>
<filter id="filter5_d_9_54" x="113" y="68" width="19" height="19" filterUnits="userSpaceOnUse" color-interpolation-filters="sRGB">
<feFlood flood-opacity="0" result="BackgroundImageFix"/>
<feColorMatrix in="SourceAlpha" type="matrix" values="0 0 0 0 0 0 0 0 0 0 0 0 0 0 0 0 0 0 127 0" result="hardAlpha"/>
<feOffset dy="4"/>
<feGaussianBlur stdDeviation="2"/>
<feComposite in2="hardAlpha" operator="out"/>
<feColorMatrix type="matrix" values="0 0 0 0 0 0 0 0 0 0 0 0 0 0 0 0 0 0 0.25 0"/>
<feBlend mode="normal" in2="BackgroundImageFix" result="effect1_dropShadow_9_54"/>
<feBlend mode="normal" in="SourceGraphic" in2="effect1_dropShadow_9_54" result="shape"/>
</filter>
<filter id="filter6_d_9_54" x="125" y="121" width="34" height="23" filterUnits="userSpaceOnUse" color-interpolation-filters="sRGB">
<feFlood flood-opacity="0" result="BackgroundImageFix"/>
<feColorMatrix in="SourceAlpha" type="matrix" values="0 0 0 0 0 0 0 0 0 0 0 0 0 0 0 0 0 0 127 0" result="hardAlpha"/>
<feOffset dy="4"/>
<feGaussianBlur stdDeviation="2"/>
<feComposite in2="hardAlpha" operator="out"/>
<feColorMatrix type="matrix" values="0 0 0 0 0 0 0 0 0 0 0 0 0 0 0 0 0 0 0.25 0"/>
<feBlend mode="normal" in2="BackgroundImageFix" result="effect1_dropShadow_9_54"/>
<feBlend mode="normal" in="SourceGraphic" in2="effect1_dropShadow_9_54" result="shape"/>
</filter>
<filter id="filter7_d_9_54" x="10.8047" y="123.402" width="162.73" height="18.0049" filterUnits="userSpaceOnUse" color-interpolation-filters="sRGB">
<feFlood flood-opacity="0" result="BackgroundImageFix"/>
<feColorMatrix in="SourceAlpha" type="matrix" values="0 0 0 0 0 0 0 0 0 0 0 0 0 0 0 0 0 0 127 0" result="hardAlpha"/>
<feOffset dy="4"/>
<feGaussianBlur stdDeviation="2"/>
<feComposite in2="hardAlpha" operator="out"/>
<feColorMatrix type="matrix" values="0 0 0 0 0 0 0 0 0 0 0 0 0 0 0 0 0 0 0.25 0"/>
<feBlend mode="normal" in2="BackgroundImageFix" result="effect1_dropShadow_9_54"/>
<feBlend mode="normal" in="SourceGraphic" in2="effect1_dropShadow_9_54" result="shape"/>
</filter>
<filter id="filter8_d_9_54" x="1.66797" y="29.3105" width="57.1309" height="30.8066" filterUnits="userSpaceOnUse" color-interpolation-filters="sRGB">
<feFlood flood-opacity="0" result="BackgroundImageFix"/>
<feColorMatrix in="SourceAlpha" type="matrix" values="0 0 0 0 0 0 0 0 0 0 0 0 0 0 0 0 0 0 127 0" result="hardAlpha"/>
<feOffset dy="4"/>
<feGaussianBlur stdDeviation="2"/>
<feComposite in2="hardAlpha" operator="out"/>
<feColorMatrix type="matrix" values="0 0 0 0 0 0 0 0 0 0 0 0 0 0 0 0 0 0 0.25 0"/>
<feBlend mode="normal" in2="BackgroundImageFix" result="effect1_dropShadow_9_54"/>
<feBlend mode="normal" in="SourceGraphic" in2="effect1_dropShadow_9_54" result="shape"/>
</filter>
<filter id="filter9_d_9_54" x="98.6035" y="39.3105" width="37.3203" height="16.8066" filterUnits="userSpaceOnUse" color-interpolation-filters="sRGB">
<feFlood flood-opacity="0" result="BackgroundImageFix"/>
<feColorMatrix in="SourceAlpha" type="matrix" values="0 0 0 0 0 0 0 0 0 0 0 0 0 0 0 0 0 0 127 0" result="hardAlpha"/>
<feOffset dy="4"/>
<feGaussianBlur stdDeviation="2"/>
<feComposite in2="hardAlpha" operator="out"/>
<feColorMatrix type="matrix" values="0 0 0 0 0 0 0 0 0 0 0 0 0 0 0 0 0 0 0.25 0"/>
<feBlend mode="normal" in2="BackgroundImageFix" result="effect1_dropShadow_9_54"/>
<feBlend mode="normal" in="SourceGraphic" in2="effect1_dropShadow_9_54" result="shape"/>
</filter>
</defs>
</svg>
