<svg width="72" height="99" viewBox="0 0 72 99" fill="none" xmlns="http://www.w3.org/2000/svg">
<path d="M66.4763 72.6479V80.5999C66.4763 80.9946 66.5776 81.2826 66.7803 81.4639C66.9936 81.6453 67.2763 81.7359 67.6283 81.7359C67.9163 81.7359 68.1669 81.6933 68.3803 81.6079C68.5936 81.5119 68.7909 81.3839 68.9723 81.2239L69.3563 82.4719C69.1109 82.6853 68.8069 82.8559 68.4443 82.9839C68.0923 83.1013 67.6976 83.1599 67.2603 83.1599C66.8016 83.1599 66.3803 83.0853 65.9963 82.9359C65.6123 82.7866 65.3136 82.5466 65.1003 82.2159C64.8869 81.8746 64.7749 81.4319 64.7643 80.8879V73.1279L66.4763 72.6479ZM69.2283 74.9999V76.3439H63.2283V74.9999H69.2283Z" fill="#101828"/>
<path d="M54.3279 82.9998V74.9998H55.8479L55.9599 77.0798L55.7359 76.8558C55.8852 76.3972 56.0985 76.0185 56.3759 75.7198C56.6639 75.4105 56.9999 75.1865 57.3839 75.0478C57.7785 74.9092 58.1945 74.8398 58.6319 74.8398C59.1972 74.8398 59.7039 74.9518 60.1519 75.1758C60.6105 75.3892 60.9732 75.7145 61.2399 76.1518C61.5065 76.5892 61.6399 77.1438 61.6399 77.8158V82.9998H59.9279V78.3438C59.9279 77.5545 59.7625 77.0105 59.4319 76.7118C59.1119 76.4025 58.7065 76.2478 58.2159 76.2478C57.8639 76.2478 57.5225 76.3332 57.1919 76.5038C56.8612 76.6638 56.5839 76.9252 56.3599 77.2878C56.1465 77.6505 56.0399 78.1358 56.0399 78.7438V82.9998H54.3279Z" fill="#101828"/>
<path d="M48.5979 83.1598C47.7979 83.1598 47.0939 82.9945 46.4859 82.6638C45.8779 82.3332 45.4032 81.8585 45.0619 81.2398C44.7312 80.6105 44.5659 79.8638 44.5659 78.9998C44.5659 78.1358 44.7312 77.3945 45.0619 76.7758C45.4032 76.1465 45.8726 75.6665 46.4699 75.3358C47.0673 75.0052 47.7446 74.8398 48.5019 74.8398C49.2806 74.8398 49.9419 74.9998 50.4859 75.3198C51.0299 75.6398 51.4459 76.0772 51.7339 76.6318C52.0219 77.1865 52.1659 77.8158 52.1659 78.5198C52.1659 78.7118 52.1606 78.8932 52.1499 79.0638C52.1393 79.2345 52.1233 79.3838 52.1019 79.5118H45.6699V78.1998H51.3499L50.5019 78.4558C50.5019 77.7305 50.3206 77.1758 49.9579 76.7918C49.5952 76.3972 49.0993 76.1998 48.4699 76.1998C48.0113 76.1998 47.6112 76.3065 47.2699 76.5198C46.9286 76.7332 46.6672 77.0532 46.4859 77.4798C46.3046 77.8958 46.2139 78.4078 46.2139 79.0158C46.2139 79.6132 46.3099 80.1198 46.5019 80.5358C46.6939 80.9518 46.9659 81.2665 47.3179 81.4798C47.6699 81.6932 48.0859 81.7998 48.5659 81.7998C49.0993 81.7998 49.5312 81.6985 49.8619 81.4958C50.1926 81.2932 50.4539 81.0105 50.6459 80.6478L52.0059 81.2878C51.8139 81.6718 51.5526 82.0078 51.2219 82.2958C50.9019 82.5732 50.5179 82.7865 50.0699 82.9358C49.6219 83.0852 49.1312 83.1598 48.5979 83.1598Z" fill="#101828"/>
<path d="M29.8904 82.9998V74.9998H31.4104L31.4904 76.3438C31.7677 75.8318 32.1357 75.4532 32.5944 75.2078C33.0637 74.9625 33.5597 74.8398 34.0824 74.8398C34.6584 74.8398 35.1864 74.9732 35.6664 75.2398C36.157 75.4958 36.525 75.8852 36.7704 76.4078C36.941 76.0558 37.1757 75.7625 37.4744 75.5278C37.7731 75.2932 38.1037 75.1225 38.4664 75.0158C38.829 74.8985 39.1864 74.8398 39.5384 74.8398C40.0504 74.8398 40.5304 74.9465 40.9784 75.1598C41.4264 75.3732 41.789 75.6985 42.0664 76.1358C42.3437 76.5732 42.4824 77.1332 42.4824 77.8158V82.9998H40.7704V78.0878C40.7704 77.4372 40.6157 76.9678 40.3064 76.6798C39.997 76.3918 39.6024 76.2478 39.1224 76.2478C38.749 76.2478 38.4024 76.3385 38.0824 76.5198C37.773 76.7012 37.5224 76.9732 37.3304 77.3358C37.1384 77.6878 37.0424 78.1252 37.0424 78.6478V82.9998H35.3304V78.0878C35.3304 77.4372 35.1757 76.9678 34.8664 76.6798C34.557 76.3918 34.1624 76.2478 33.6824 76.2478C33.3624 76.2478 33.0424 76.3332 32.7224 76.5038C32.4024 76.6745 32.1357 76.9412 31.9224 77.3038C31.709 77.6665 31.6024 78.1465 31.6024 78.7438V82.9998H29.8904Z" fill="#101828"/>
<path d="M28.4299 75L24.9259 83.944C24.6912 84.5627 24.4352 85.0533 24.1579 85.416C23.8912 85.7787 23.5819 86.04 23.2299 86.2C22.8779 86.36 22.4672 86.44 21.9979 86.44C21.6139 86.44 21.2565 86.3867 20.9259 86.28C20.6059 86.184 20.3232 86.0507 20.0779 85.88L20.4939 84.552C20.6965 84.7227 20.9099 84.8507 21.1339 84.936C21.3685 85.0213 21.6192 85.064 21.8859 85.064C22.1739 85.064 22.4299 84.984 22.6539 84.824C22.8885 84.6747 23.0965 84.3707 23.2779 83.912L23.6299 83.048L22.7819 81.064L20.2859 75H22.2059L23.9819 80.024L24.4459 81.528L24.9739 79.88L26.6539 75H28.4299Z" fill="#101828"/>
<path d="M17.3893 77.8638C17.3893 77.3305 17.2399 76.9198 16.9413 76.6318C16.6533 76.3332 16.2533 76.1838 15.7413 76.1838C15.2613 76.1838 14.8506 76.2958 14.5093 76.5198C14.1679 76.7438 13.9173 77.1065 13.7573 77.6078L12.3173 76.9998C12.5199 76.3492 12.9146 75.8265 13.5013 75.4318C14.0986 75.0372 14.8666 74.8398 15.8053 74.8398C16.4453 74.8398 17.0106 74.9465 17.5013 75.1598C17.9919 75.3625 18.3759 75.6718 18.6533 76.0878C18.9413 76.5038 19.0853 77.0372 19.0853 77.6878V81.2558C19.0853 81.6505 19.2826 81.8478 19.6773 81.8478C19.8693 81.8478 20.0559 81.8212 20.2373 81.7678L20.1413 82.9518C19.8959 83.0692 19.5866 83.1278 19.2133 83.1278C18.8719 83.1278 18.5626 83.0692 18.2853 82.9518C18.0186 82.8238 17.8053 82.6372 17.6453 82.3918C17.4959 82.1358 17.4213 81.8212 17.4213 81.4478V81.3358L17.7733 81.3198C17.6773 81.7358 17.4799 82.0825 17.1813 82.3598C16.8826 82.6265 16.5359 82.8292 16.1413 82.9678C15.7466 83.0958 15.3466 83.1598 14.9413 83.1598C14.4399 83.1598 13.9866 83.0798 13.5813 82.9198C13.1866 82.7598 12.8719 82.5198 12.6373 82.1998C12.4133 81.8692 12.3013 81.4638 12.3013 80.9838C12.3013 80.3865 12.4933 79.8958 12.8773 79.5118C13.2719 79.1278 13.8266 78.8665 14.5413 78.7278L17.6453 78.1198L17.6293 79.3198L15.3733 79.7838C14.9253 79.8692 14.5893 79.9918 14.3653 80.1518C14.1413 80.3118 14.0293 80.5465 14.0293 80.8558C14.0293 81.1545 14.1413 81.3945 14.3653 81.5758C14.5999 81.7465 14.9093 81.8318 15.2933 81.8318C15.5599 81.8318 15.8159 81.7998 16.0613 81.7358C16.3173 81.6718 16.5466 81.5705 16.7493 81.4318C16.9519 81.2825 17.1066 81.0958 17.2133 80.8718C17.3306 80.6372 17.3893 80.3598 17.3893 80.0398V77.8638Z" fill="#101828"/>
<path d="M7.03812 72.4399C7.79545 72.4399 8.44612 72.5733 8.99012 72.8399C9.54479 73.1066 9.97679 73.4853 10.2861 73.9759C10.5955 74.4666 10.7501 75.0586 10.7501 75.7519C10.7501 76.4346 10.5955 77.0266 10.2861 77.5279C9.97679 78.0186 9.54479 78.3973 8.99012 78.6639C8.44612 78.9306 7.79545 79.0639 7.03812 79.0639H4.68612V82.9999H2.97412V72.4399H7.03812ZM6.76612 77.5919C7.52345 77.5919 8.07812 77.4373 8.43012 77.1279C8.79279 76.8079 8.97412 76.3493 8.97412 75.7519C8.97412 75.1439 8.79279 74.6853 8.43012 74.3759C8.07812 74.0559 7.52345 73.8959 6.76612 73.8959H4.68612V77.5919H6.76612Z" fill="#101828"/>
<path d="M62.8022 91.5798V96.6198C62.8022 96.8665 62.8722 97.0498 63.0122 97.1698C63.1522 97.2898 63.3322 97.3498 63.5522 97.3498C63.7455 97.3498 63.9122 97.3165 64.0522 97.2498C64.1922 97.1832 64.3189 97.0932 64.4322 96.9798L64.7122 97.6498C64.5589 97.7898 64.3755 97.8998 64.1622 97.9798C63.9555 98.0598 63.7155 98.0998 63.4422 98.0998C63.1889 98.0998 62.9522 98.0565 62.7322 97.9698C62.5122 97.8765 62.3355 97.7332 62.2022 97.5398C62.0755 97.3398 62.0089 97.0798 62.0022 96.7598V91.7998L62.8022 91.5798ZM64.6222 92.9998V93.6898H61.0022V92.9998H64.6222Z" fill="#565656"/>
<path d="M58.0872 98.0999C57.6139 98.0999 57.1905 97.9966 56.8172 97.7899C56.4505 97.5832 56.1639 97.2866 55.9572 96.8999C55.7505 96.5066 55.6472 96.0399 55.6472 95.4999C55.6472 94.9599 55.7505 94.4966 55.9572 94.1099C56.1639 93.7166 56.4472 93.4166 56.8072 93.2099C57.1672 93.0032 57.5772 92.8999 58.0372 92.8999C58.5039 92.8999 58.9005 92.9999 59.2272 93.1999C59.5605 93.3999 59.8139 93.6732 59.9872 94.0199C60.1606 94.3599 60.2472 94.7432 60.2472 95.1699C60.2472 95.2832 60.2439 95.3866 60.2372 95.4799C60.2306 95.5732 60.2205 95.6566 60.2072 95.7299H56.1672V95.0199H59.8572L59.4472 95.0999C59.4472 94.6199 59.3139 94.2499 59.0472 93.9899C58.7872 93.7299 58.4439 93.5999 58.0172 93.5999C57.6905 93.5999 57.4072 93.6766 57.1672 93.8299C56.9339 93.9766 56.7505 94.1932 56.6172 94.4799C56.4905 94.7599 56.4272 95.0999 56.4272 95.4999C56.4272 95.8932 56.4939 96.2332 56.6272 96.5199C56.7605 96.8066 56.9472 97.0266 57.1872 97.1799C57.4339 97.3266 57.7272 97.3999 58.0672 97.3999C58.4339 97.3999 58.7305 97.3299 58.9572 97.1899C59.1905 97.0499 59.3772 96.8599 59.5172 96.6199L60.1472 96.9899C60.0206 97.2166 59.8572 97.4132 59.6572 97.5799C59.4639 97.7466 59.2339 97.8766 58.9672 97.9699C58.7072 98.0566 58.4139 98.0999 58.0872 98.0999Z" fill="#565656"/>
<path d="M49.8059 97.9999V92.9999H50.5059L50.5759 94.1199L50.4459 94.0099C50.5526 93.7432 50.6959 93.5299 50.8759 93.3699C51.0559 93.2032 51.2626 93.0832 51.4959 93.0099C51.7359 92.9366 51.9826 92.8999 52.2359 92.8999C52.5959 92.8999 52.9226 92.9699 53.2159 93.1099C53.5092 93.2432 53.7426 93.4499 53.9159 93.7299C54.0959 94.0099 54.1859 94.3666 54.1859 94.7999V97.9999H53.3859V95.0799C53.3859 94.5266 53.2659 94.1432 53.0259 93.9299C52.7926 93.7099 52.5026 93.5999 52.1559 93.5999C51.9159 93.5999 51.6759 93.6566 51.4359 93.7699C51.1959 93.8832 50.9959 94.0666 50.8359 94.3199C50.6826 94.5732 50.6059 94.9132 50.6059 95.3399V97.9999H49.8059Z" fill="#565656"/>
<path d="M45.7239 97.9999V92.9999H46.3739L46.4839 93.8199C46.6239 93.5132 46.8272 93.2832 47.0939 93.1299C47.3672 92.9766 47.6972 92.8999 48.0839 92.8999C48.1705 92.8999 48.2639 92.9066 48.3639 92.9199C48.4705 92.9332 48.5605 92.9599 48.6339 92.9999L48.4939 93.7299C48.4205 93.7032 48.3405 93.6832 48.2539 93.6699C48.1672 93.6566 48.0439 93.6499 47.8839 93.6499C47.6772 93.6499 47.4672 93.7099 47.2539 93.8299C47.0472 93.9499 46.8739 94.1332 46.7339 94.3799C46.5939 94.6199 46.5239 94.9266 46.5239 95.2999V97.9999H45.7239Z" fill="#565656"/>
<path d="M42.0423 98.0999C41.569 98.0999 41.1456 97.9966 40.7723 97.7899C40.4056 97.5832 40.119 97.2866 39.9123 96.8999C39.7056 96.5066 39.6023 96.0399 39.6023 95.4999C39.6023 94.9599 39.7056 94.4966 39.9123 94.1099C40.119 93.7166 40.4023 93.4166 40.7623 93.2099C41.1223 93.0032 41.5323 92.8999 41.9923 92.8999C42.459 92.8999 42.8556 92.9999 43.1823 93.1999C43.5156 93.3999 43.769 93.6732 43.9423 94.0199C44.1156 94.3599 44.2023 94.7432 44.2023 95.1699C44.2023 95.2832 44.199 95.3866 44.1923 95.4799C44.1856 95.5732 44.1756 95.6566 44.1623 95.7299H40.1223V95.0199H43.8123L43.4023 95.0999C43.4023 94.6199 43.269 94.2499 43.0023 93.9899C42.7423 93.7299 42.399 93.5999 41.9723 93.5999C41.6456 93.5999 41.3623 93.6766 41.1223 93.8299C40.889 93.9766 40.7056 94.1932 40.5723 94.4799C40.4456 94.7599 40.3823 95.0999 40.3823 95.4999C40.3823 95.8932 40.449 96.2332 40.5823 96.5199C40.7156 96.8066 40.9023 97.0266 41.1423 97.1799C41.389 97.3266 41.6823 97.3999 42.0223 97.3999C42.389 97.3999 42.6856 97.3299 42.9123 97.1899C43.1456 97.0499 43.3323 96.8599 43.4723 96.6199L44.1023 96.9899C43.9756 97.2166 43.8123 97.4132 43.6123 97.5799C43.419 97.7466 43.189 97.8766 42.9223 97.9699C42.6623 98.0566 42.369 98.0999 42.0423 98.0999Z" fill="#565656"/>
<path d="M36.9428 91.5798V96.6198C36.9428 96.8665 37.0128 97.0498 37.1528 97.1698C37.2928 97.2898 37.4728 97.3498 37.6928 97.3498C37.8862 97.3498 38.0528 97.3165 38.1928 97.2498C38.3328 97.1832 38.4595 97.0932 38.5728 96.9798L38.8528 97.6498C38.6995 97.7898 38.5162 97.8998 38.3028 97.9798C38.0962 98.0598 37.8562 98.0998 37.5828 98.0998C37.3295 98.0998 37.0928 98.0565 36.8728 97.9698C36.6528 97.8765 36.4762 97.7332 36.3428 97.5398C36.2162 97.3398 36.1495 97.0798 36.1428 96.7598V91.7998L36.9428 91.5798ZM38.7628 92.9998V93.6898H35.1428V92.9998H38.7628Z" fill="#565656"/>
<path d="M29.6399 97.9999V92.9999H30.3399L30.4099 94.1199L30.2799 94.0099C30.3866 93.7432 30.5299 93.5299 30.7099 93.3699C30.8899 93.2032 31.0966 93.0832 31.3299 93.0099C31.5699 92.9366 31.8166 92.8999 32.0699 92.8999C32.4299 92.8999 32.7566 92.9699 33.0499 93.1099C33.3432 93.2432 33.5766 93.4499 33.7499 93.7299C33.9299 94.0099 34.0199 94.3666 34.0199 94.7999V97.9999H33.2199V95.0799C33.2199 94.5266 33.0999 94.1432 32.8599 93.9299C32.6266 93.7099 32.3366 93.5999 31.9899 93.5999C31.7499 93.5999 31.5099 93.6566 31.2699 93.7699C31.0299 93.8832 30.8299 94.0666 30.6699 94.3199C30.5166 94.5732 30.4399 94.9132 30.4399 95.3399V97.9999H29.6399Z" fill="#565656"/>
<path d="M25.7137 92.8999C26.187 92.8999 26.6037 93.0032 26.9637 93.2099C27.3304 93.4166 27.617 93.7166 27.8237 94.1099C28.0304 94.4966 28.1337 94.9599 28.1337 95.4999C28.1337 96.0399 28.0304 96.5066 27.8237 96.8999C27.617 97.2866 27.3304 97.5832 26.9637 97.7899C26.6037 97.9966 26.187 98.0999 25.7137 98.0999C25.247 98.0999 24.8304 97.9966 24.4637 97.7899C24.097 97.5832 23.8104 97.2866 23.6037 96.8999C23.397 96.5066 23.2937 96.0399 23.2937 95.4999C23.2937 94.9599 23.397 94.4966 23.6037 94.1099C23.8104 93.7166 24.097 93.4166 24.4637 93.2099C24.8304 93.0032 25.247 92.8999 25.7137 92.8999ZM25.7137 93.5899C25.3737 93.5899 25.0837 93.6666 24.8437 93.8199C24.6037 93.9732 24.417 94.1932 24.2837 94.4799C24.157 94.7599 24.0937 95.0999 24.0937 95.4999C24.0937 95.8932 24.157 96.2332 24.2837 96.5199C24.417 96.8066 24.6037 97.0266 24.8437 97.1799C25.0837 97.3332 25.3737 97.4099 25.7137 97.4099C26.0537 97.4099 26.3437 97.3332 26.5837 97.1799C26.8237 97.0266 27.007 96.8066 27.1337 96.5199C27.267 96.2332 27.3337 95.8932 27.3337 95.4999C27.3337 95.0999 27.267 94.7599 27.1337 94.4799C27.007 94.1932 26.8237 93.9732 26.5837 93.8199C26.3437 93.6666 26.0537 93.5899 25.7137 93.5899Z" fill="#565656"/>
<path d="M14.0442 97.9999V92.9999H14.7442L14.8142 94.1199L14.6842 94.0099C14.7909 93.7432 14.9342 93.5299 15.1142 93.3699C15.2942 93.2032 15.5009 93.0832 15.7342 93.0099C15.9742 92.9366 16.2209 92.8999 16.4742 92.8999C16.8342 92.8999 17.1609 92.9699 17.4542 93.1099C17.7475 93.2432 17.9809 93.4499 18.1542 93.7299C18.3342 94.0099 18.4242 94.3666 18.4242 94.7999V97.9999H17.6242V95.0799C17.6242 94.5266 17.5042 94.1432 17.2642 93.9299C17.0309 93.7099 16.7409 93.5999 16.3942 93.5999C16.1542 93.5999 15.9142 93.6566 15.6742 93.7699C15.4342 93.8832 15.2342 94.0666 15.0742 94.3199C14.9209 94.5732 14.8442 94.9132 14.8442 95.3399V97.9999H14.0442Z" fill="#565656"/>
<path d="M10.118 92.8999C10.5913 92.8999 11.008 93.0032 11.368 93.2099C11.7347 93.4166 12.0213 93.7166 12.228 94.1099C12.4347 94.4966 12.538 94.9599 12.538 95.4999C12.538 96.0399 12.4347 96.5066 12.228 96.8999C12.0213 97.2866 11.7347 97.5832 11.368 97.7899C11.008 97.9966 10.5913 98.0999 10.118 98.0999C9.65133 98.0999 9.23466 97.9966 8.868 97.7899C8.50133 97.5832 8.21466 97.2866 8.008 96.8999C7.80133 96.5066 7.698 96.0399 7.698 95.4999C7.698 94.9599 7.80133 94.4966 8.008 94.1099C8.21466 93.7166 8.50133 93.4166 8.868 93.2099C9.23466 93.0032 9.65133 92.8999 10.118 92.8999ZM10.118 93.5899C9.778 93.5899 9.488 93.6666 9.248 93.8199C9.008 93.9732 8.82133 94.1932 8.688 94.4799C8.56133 94.7599 8.498 95.0999 8.498 95.4999C8.498 95.8932 8.56133 96.2332 8.688 96.5199C8.82133 96.8066 9.008 97.0266 9.248 97.1799C9.488 97.3332 9.778 97.4099 10.118 97.4099C10.458 97.4099 10.748 97.3332 10.988 97.1799C11.228 97.0266 11.4113 96.8066 11.538 96.5199C11.6713 96.2332 11.738 95.8932 11.738 95.4999C11.738 95.0999 11.6713 94.7599 11.538 94.4799C11.4113 94.1932 11.228 93.9732 10.988 93.8199C10.748 93.6666 10.458 93.5899 10.118 93.5899Z" fill="#565656"/>
<g filter="url(#filter0_d_92_4)">
<path d="M54.9998 34C54.9998 44.4934 46.4932 53 35.9998 53C25.5063 53 16.9998 44.4934 16.9998 34C16.9998 23.5066 25.5063 15 35.9998 15C46.4932 15 54.9998 23.5066 54.9998 34Z" fill="#C9D6E9" fill-opacity="0.87"/>
<path d="M30.1695 37.7493C30.1695 37.4661 30.282 37.1944 30.4822 36.9942C30.6826 36.7939 30.9542 36.6815 31.2373 36.6815C31.4251 36.6823 31.6094 36.7327 31.7713 36.8273C31.9344 36.9214 32.0696 37.0569 32.1633 37.2201C32.2571 37.3833 32.3061 37.5682 32.3053 37.7564C32.3053 37.8065 32.3017 37.8564 32.2946 37.9059C32.2466 38.2348 32.0495 38.5229 31.7607 38.6873C31.5987 38.782 31.4143 38.8319 31.2267 38.8315C30.9429 38.8286 30.6718 38.7129 30.4734 38.5099C30.2751 38.3069 30.1657 38.0332 30.1695 37.7493L30.1695 37.7493ZM43.942 30.5122H39.7948C39.6762 30.784 39.5231 31.0395 39.3391 31.2722C38.5697 32.258 37.3383 32.7664 36.0976 32.6106C34.8568 32.4548 33.7893 31.6577 33.2876 30.5122H29.146C28.8424 30.5127 28.5513 30.6333 28.3367 30.8479C28.1219 31.0623 28.0007 31.353 27.9998 31.6566V32.6907H45.0867V31.6566C45.0863 31.3533 44.9655 31.0624 44.751 30.8479C44.5364 30.6335 44.2457 30.5127 43.9422 30.5122L43.942 30.5122ZM32.8304 37.9878C32.8304 38.0394 32.8127 38.0928 32.8001 38.1444V38.1443C32.7993 38.1538 32.7993 38.1634 32.8001 38.1728C32.783 38.2332 32.7628 38.2926 32.7396 38.3508C32.7339 38.3659 32.7273 38.3808 32.7201 38.3953C32.7006 38.4398 32.6791 38.4843 32.6543 38.5287L32.6347 38.5661C32.6026 38.6195 32.5689 38.6694 32.5333 38.7174L32.5066 38.7495C32.4889 38.7726 32.4728 38.7958 32.4532 38.8171H32.4531C32.4987 38.8199 32.5445 38.8199 32.5901 38.8171C32.9742 38.8171 33.3291 38.6121 33.5211 38.2796C33.7132 37.9469 33.7132 37.5372 33.5211 37.2045C33.3291 36.872 32.9742 36.667 32.5901 36.667C32.5445 36.6643 32.4987 36.6643 32.4531 36.667C32.4708 36.6865 32.487 36.708 32.5029 36.7293L32.535 36.7685H32.5349C32.5703 36.8158 32.6029 36.8653 32.6328 36.9162C32.6328 36.9304 32.6488 36.9448 32.6559 36.959C32.6797 37.0017 32.701 37.0445 32.72 37.0871C32.72 37.1031 32.7342 37.1174 32.7395 37.1334H32.7396C32.7634 37.1914 32.7836 37.2508 32.8001 37.3113C32.7993 37.322 32.7993 37.3328 32.8001 37.3434C32.813 37.3944 32.8231 37.4461 32.8304 37.4983C32.8313 37.5154 32.8313 37.5327 32.8304 37.5498C32.847 37.675 32.847 37.8019 32.8304 37.9271C32.8315 37.9473 32.8315 37.9675 32.8304 37.9878L32.8304 37.9878ZM27.9998 34.3587H45.0867V33.2232H27.9998V34.3587ZM27.9998 34.8927H45.0867V40.2216C45.0876 40.5257 44.9674 40.8177 44.7527 41.0331C44.5381 41.2484 44.2464 41.3696 43.9422 41.3696H29.146C28.8417 41.3696 28.5499 41.2486 28.3349 41.0332C28.1198 40.8178 27.9992 40.5258 27.9998 40.2216L27.9998 34.8927ZM36.0378 37.0784C36.0378 37.2257 36.1573 37.3454 36.3048 37.3454H43.1857C43.3332 37.3454 43.4527 37.2257 43.4527 37.0784C43.4527 36.9309 43.3332 36.8114 43.1857 36.8114H36.3048C36.1573 36.8114 36.0378 36.9309 36.0378 37.0784ZM36.0378 38.4204V38.4203C36.0378 38.5678 36.1573 38.6873 36.3048 38.6873H43.1857C43.3332 38.6873 43.4527 38.5678 43.4527 38.4203C43.4527 38.2729 43.3332 38.1534 43.1857 38.1534H36.3048C36.1573 38.1534 36.0378 38.2729 36.0378 38.4203V38.4204ZM29.6304 37.7495V37.7494C29.6304 38.1742 29.7992 38.5816 30.0995 38.882C30.3999 39.1825 30.8073 39.3513 31.2322 39.3513C31.4679 39.3547 31.7014 39.3056 31.9157 39.2071C32.125 39.3061 32.3534 39.3577 32.5849 39.3584C33.1597 39.3584 33.691 39.0517 33.9783 38.5539C34.2658 38.0561 34.2658 37.4427 33.9783 36.9448C33.691 36.447 33.1597 36.1404 32.5849 36.1404C32.3529 36.1411 32.1239 36.1927 31.914 36.2916C31.7048 36.1926 31.4763 36.141 31.2448 36.1404C30.8174 36.1385 30.4071 36.3073 30.1048 36.6095C29.8028 36.9116 29.6338 37.322 29.6357 37.7494L29.6304 37.7495ZM39.5585 29.0884C39.5328 30.1479 38.9527 31.116 38.0307 31.6384C37.1087 32.1608 35.98 32.1608 35.058 31.6384C34.136 31.1161 33.5559 30.1479 33.5302 29.0884C33.5104 28.2762 33.8192 27.4905 34.3866 26.9091C34.9541 26.3278 35.732 26 36.5444 26C37.3567 26 38.1346 26.3278 38.7021 26.9091C39.2695 27.4905 39.5783 28.2762 39.5585 29.0884H39.5585ZM37.9423 28.2927H37.9424C37.8926 28.2423 37.8246 28.2139 37.7537 28.2139C37.6828 28.2139 37.615 28.2423 37.5651 28.2927L36.1874 29.6669L35.5235 29.003V29.0029C35.4189 28.8987 35.2496 28.8991 35.1454 29.0039C35.0412 29.1085 35.0416 29.2778 35.1462 29.382L35.9988 30.2328C36.0483 30.2838 36.1166 30.3121 36.1874 30.3111C36.2583 30.3115 36.3263 30.2832 36.3762 30.2328L37.9425 28.6665C38.0456 28.5619 38.0456 28.3938 37.9425 28.2892L37.9423 28.2927Z" fill="#4C6487"/>
</g>
<defs>
<filter id="filter0_d_92_4" x="-0.000244141" y="0" width="72" height="72" filterUnits="userSpaceOnUse" color-interpolation-filters="sRGB">
<feFlood flood-opacity="0" result="BackgroundImageFix"/>
<feColorMatrix in="SourceAlpha" type="matrix" values="0 0 0 0 0 0 0 0 0 0 0 0 0 0 0 0 0 0 127 0" result="hardAlpha"/>
<feOffset dy="2"/>
<feGaussianBlur stdDeviation="8.5"/>
<feComposite in2="hardAlpha" operator="out"/>
<feColorMatrix type="matrix" values="0 0 0 0 0.175 0 0 0 0 0.175 0 0 0 0 0.175 0 0 0 0.12 0"/>
<feBlend mode="normal" in2="BackgroundImageFix" result="effect1_dropShadow_92_4"/>
<feBlend mode="normal" in="SourceGraphic" in2="effect1_dropShadow_92_4" result="shape"/>
</filter>
</defs>
</svg>
