<svg width="12" height="12" viewBox="0 0 12 12" fill="none" xmlns="http://www.w3.org/2000/svg">
<g id="Group">
<path id="Vector" d="M10.3125 0H0.9375C0.420536 0 0 0.420536 0 0.9375V11.0625C0 11.5795 0.420536 12 0.9375 12H10.3125C10.8295 12 11.25 11.5795 11.25 11.0625V0.9375C11.25 0.420536 10.8295 0 10.3125 0ZM10.875 11.0625C10.875 11.3726 10.6226 11.625 10.3125 11.625H0.9375C0.627364 11.625 0.375 11.3726 0.375 11.0625V0.9375C0.375 0.627364 0.627364 0.375 0.9375 0.375H10.3125C10.6226 0.375 10.875 0.627364 10.875 0.9375V11.0625Z" fill="black"/>
<path id="Vector_2" d="M10.0091 1.1394C9.98613 1.12986 9.96177 1.125 9.93741 1.125H8.06241C7.95896 1.125 7.87491 1.20879 7.87491 1.3125C7.87491 1.41621 7.95896 1.5 8.06241 1.5H9.48482L6.80475 4.17986C6.73142 4.25318 6.73142 4.37171 6.80475 4.44495C6.84133 4.48153 6.88938 4.49994 6.93734 4.49994C6.9853 4.49994 7.03335 4.48153 7.06993 4.44503L9.74979 1.76496V3.18737C9.74979 3.29108 9.83383 3.37487 9.93729 3.37487C10.0407 3.37487 10.1248 3.29108 10.1248 3.18737V1.31237C10.1248 1.28801 10.1198 1.26365 10.1104 1.24072C10.0914 1.19485 10.0548 1.15827 10.0089 1.13927L10.0091 1.1394Z" fill="black"/>
<path id="Vector_3" d="M4.17986 7.55485L1.5 10.2349V8.81252C1.5 8.70881 1.41596 8.62502 1.3125 8.62502C1.20904 8.62502 1.125 8.70881 1.125 8.81252V10.6875C1.125 10.7119 1.13002 10.7362 1.1394 10.7592C1.15831 10.8051 1.19489 10.8417 1.24085 10.8606C1.26378 10.87 1.28814 10.875 1.3125 10.875H3.1875C3.29096 10.875 3.375 10.7912 3.375 10.6875C3.375 10.5838 3.29096 10.5 3.1875 10.5H1.76509L4.44495 7.82016C4.51828 7.74683 4.51828 7.62831 4.44495 7.55507C4.37171 7.48166 4.25318 7.48166 4.17986 7.55498L4.17986 7.55485Z" fill="black"/>
</g>
</svg>
