<svg width="59" height="50" viewBox="0 0 59 50" fill="none" xmlns="http://www.w3.org/2000/svg">
<g id="Group">
<path id="Vector" d="M32.337 46.7929C32.337 48.5642 30.9012 50 29.1299 50C27.3587 50 25.9229 48.5642 25.9229 46.7929C25.9229 45.0217 27.3587 43.5858 29.1299 43.5858C30.9012 43.5858 32.337 45.0217 32.337 46.7929Z" fill="#596B86"/>
<path id="Vector_2" d="M42.6457 30.8774C38.8303 27.7624 34.0558 26.0607 29.1304 26.0607C24.2051 26.0607 19.4302 27.7624 15.6151 30.8774C14.9999 31.3658 14.6064 32.0809 14.5237 32.8622C14.4407 33.6435 14.6751 34.4253 15.1746 35.0319C15.6736 35.6386 16.3956 36.019 17.1782 36.0881C17.9607 36.1568 18.7383 35.9086 19.336 35.3989C22.1033 33.1465 25.5628 31.9169 29.131 31.9169C32.6989 31.9169 36.1583 33.1465 38.9261 35.3989C39.5234 35.911 40.3018 36.1613 41.0856 36.093C41.8698 36.0251 42.593 35.6443 43.0933 35.0364C43.5932 34.4289 43.8276 33.6456 43.7433 32.863C43.6594 32.0809 43.2639 31.365 42.6461 30.8774L42.6457 30.8774Z" fill="#596B86"/>
<path id="Vector_3" d="M55.2364 24.5701C55.8831 17.4801 49.8711 10.8254 42.7536 10.7417C38.8499 -2.73594 21.3413 -3.80933 15.9806 9.10298C7.59197 11.1 2.75438 16.9987 4.05188 23.9472C0.655772 25.5957 -0.38285 29.2188 0.119497 32.0144C0.361256 33.5897 1.16344 35.0251 2.37833 36.0568C3.5933 37.0885 5.13951 37.6476 6.73326 37.6313H14.1717C14.4572 37.6198 14.7068 37.4358 14.8017 37.1666C14.897 36.8974 14.8184 36.5976 14.6041 36.4094C13.6567 35.5651 13.1266 34.3485 13.1532 33.0796C13.1802 31.8111 13.761 30.6178 14.7433 29.8144C18.804 26.4981 23.8863 24.6863 29.1298 24.6863C34.3733 24.6863 39.4551 26.4981 43.5164 29.8144C45.5699 31.4093 45.6624 34.7706 43.6391 36.4237C43.4268 36.613 43.3524 36.9133 43.4514 37.1804C43.5508 37.4471 43.8032 37.6263 44.0879 37.6312H51.4368C55.2743 37.8104 58.2011 34.3149 58.251 30.5429C58.1704 27.8725 57.1048 25.7703 55.2362 24.5705L55.2364 24.5701ZM10.6305 25.1276C10.4509 25.4614 10.0344 25.5866 9.70065 25.407C8.28283 24.6429 6.6142 24.4923 5.08224 24.9902C5.4234 24.867 5.60994 24.5001 5.50848 24.152C5.45121 23.9315 5.40662 23.7082 5.37554 23.4828C7.06657 23.1375 8.82557 23.3903 10.351 24.1978C10.6848 24.3774 10.81 24.7938 10.6304 25.1276H10.6305ZM25.149 11.2552C24.9645 11.5866 24.546 11.7056 24.2143 11.5207C21.9014 10.2812 19.2342 9.86895 16.6547 10.3525C16.8686 10.2968 17.0424 10.1418 17.1222 9.93561C17.2736 9.56009 17.4339 9.18865 17.6123 8.83153C20.1297 8.60573 22.6577 9.1232 24.8835 10.3206C25.2148 10.505 25.3339 10.9235 25.149 11.2553L25.149 11.2552ZM32.9421 16.9544C32.8402 17.1123 32.6783 17.2215 32.4942 17.2567C32.3097 17.2918 32.1191 17.2501 31.9661 17.1409C31.8131 17.0321 31.7116 16.8652 31.685 16.6795C31.658 16.4938 31.7084 16.3052 31.8245 16.1575C34.0168 13.0244 37.5036 11.0458 41.3173 10.7693C41.4089 11.0442 41.4916 11.3191 41.5693 11.603V11.6034C41.6568 11.8991 41.9252 12.1045 42.2336 12.1118C38.5312 12.1106 35.0619 13.9187 32.942 16.9543L32.9421 16.9544ZM51.1217 24.6882C50.7421 24.6882 50.4344 24.3806 50.4344 24.001C50.4344 23.6214 50.7421 23.3138 51.1217 23.3138C52.0723 23.3113 53.0144 23.4966 53.8935 23.859C53.889 24.1936 53.8661 24.5324 53.8293 24.867C53.8003 25.1304 53.925 25.3869 54.15 25.5268C53.237 24.9742 52.1889 24.6841 51.1217 24.6882H51.1217Z" fill="#596B86"/>
<path id="Vector_4" d="M36.1217 37.1722C34.0592 35.772 31.6236 35.0233 29.1303 35.0233C26.637 35.0233 24.2015 35.7719 22.1389 37.1722C21.2811 37.7739 20.8095 38.7872 20.9015 39.8307C20.9935 40.8743 21.6354 41.7893 22.5852 42.2316C23.5351 42.6734 24.6485 42.5752 25.5064 41.9739C26.5811 41.2625 27.8414 40.8833 29.1303 40.8833C30.4192 40.8833 31.6796 41.2625 32.7541 41.9739C33.3911 42.4202 34.1789 42.5957 34.9451 42.4611C35.7109 42.3265 36.3919 41.8933 36.8387 41.2568C37.2854 40.6199 37.4605 39.832 37.3263 39.0658C37.1917 38.3 36.7585 37.619 36.1216 37.1722L36.1217 37.1722Z" fill="#596B86"/>
</g>
</svg>
